# MagicaVoxel @ Ephtracy

# group
o 

# material
mtllib Diamond Axe.mtl
usemtl palette

# normals
vn -1 0 0
vn 1 0 0
vn 0 0 1
vn 0 0 -1
vn 0 -1 0
vn 0 1 0

# texcoords
vt 0.939453 0.5
vt 0.943359 0.5
vt 0.947266 0.5
vt 0.970703 0.5
vt 0.974609 0.5
vt 0.978516 0.5
vt 0.982422 0.5
vt 0.986328 0.5
vt 0.990234 0.5

# verts
v -0.7 0.3 0.1
v -0.7 0.3 0
v -0.7 0.5 0.1
v -0.7 0.5 0
v -0.6 0.2 0.1
v -0.6 0.2 0
v -0.6 0.3 0.1
v -0.6 0.3 0
v -0.6 0.5 0.1
v -0.6 0.5 0
v -0.6 0.6 0.1
v -0.6 0.6 0
v -0.5 0.1 0.1
v -0.5 0.1 0
v -0.5 0.2 0.1
v -0.5 0.2 0
v -0.4 0 0.1
v -0.4 0 0
v -0.4 0.1 0.1
v -0.4 0.1 0
v -0.4 0.6 0.1
v -0.4 0.6 0
v -0.4 0.7 0.1
v -0.4 0.7 0
v -0.2 0.7 0.1
v -0.2 0.7 0
v -0.2 0.8 0.1
v -0.2 0.8 0
v 0 0.1 0.1
v 0 0.1 0
v 0 0.2 0.1
v 0 0.2 0
v 0.1 0 0.1
v 0.1 0 0
v 0.1 0.1 0.1
v 0.1 0.1 0
v 0.2 -0.1 0.1
v 0.2 -0.1 0
v 0.2 0 0.1
v 0.2 0 0
v 0.3 -0.2 0.1
v 0.3 -0.2 0
v 0.3 -0.1 0.1
v 0.3 -0.1 0
v 0.4 -0.3 0.1
v 0.4 -0.3 0
v 0.4 -0.2 0.1
v 0.4 -0.2 0
v 0.5 -0.4 0.1
v 0.5 -0.4 0
v 0.5 -0.3 0.1
v 0.5 -0.3 0
v -0.2 0 0.1
v -0.2 0 0
v -0.2 0.1 0.1
v -0.2 0.1 0
v -0.1 0.1 0.1
v -0.1 0.1 0
v -0.1 0.2 0.1
v -0.1 0.2 0
v 0 0.4 0.1
v 0 0.4 0
v 0 0.5 0.1
v 0 0.5 0
v 0 0.7 0.1
v 0 0.7 0
v 0 0.8 0.1
v 0 0.8 0
v 0.1 0.3 0.1
v 0.1 0.3 0
v 0.1 0.4 0.1
v 0.1 0.4 0
v 0.1 0.5 0.1
v 0.1 0.5 0
v 0.1 0.7 0.1
v 0.1 0.7 0
v 0.2 0.2 0.1
v 0.2 0.2 0
v 0.2 0.3 0.1
v 0.2 0.3 0
v 0.3 0.1 0.1
v 0.3 0.1 0
v 0.3 0.2 0.1
v 0.3 0.2 0
v 0.4 0 0.1
v 0.4 0 0
v 0.4 0.1 0.1
v 0.4 0.1 0
v 0.5 -0.1 0.1
v 0.5 -0.1 0
v 0.5 0 0.1
v 0.5 0 0
v 0.6 -0.2 0.1
v 0.6 -0.2 0
v 0.6 -0.1 0.1
v 0.6 -0.1 0
v 0.7 -0.4 0.1
v 0.7 -0.4 0
v 0.7 -0.3 0.1
v 0.7 -0.3 0
v 0.7 -0.2 0.1
v 0.7 -0.2 0
v -0.7 0.3 0.1
v -0.7 0.5 0.1
v -0.6 0.2 0.1
v -0.6 0.3 0.1
v -0.6 0.5 0.1
v -0.6 0.6 0.1
v -0.5 0.1 0.1
v -0.5 0.2 0.1
v -0.5 0.3 0.1
v -0.5 0.4 0.1
v -0.5 0.5 0.1
v -0.4 0 0.1
v -0.4 0.1 0.1
v -0.4 0.2 0.1
v -0.4 0.3 0.1
v -0.4 0.4 0.1
v -0.4 0.5 0.1
v -0.4 0.6 0.1
v -0.4 0.7 0.1
v -0.3 0.2 0.1
v -0.3 0.3 0.1
v -0.3 0.4 0.1
v -0.3 0.5 0.1
v -0.3 0.6 0.1
v -0.3 0.7 0.1
v -0.2 0 0.1
v -0.2 0.1 0.1
v -0.2 0.2 0.1
v -0.2 0.3 0.1
v -0.2 0.4 0.1
v -0.2 0.5 0.1
v -0.2 0.6 0.1
v -0.2 0.7 0.1
v -0.2 0.8 0.1
v -0.1 0.1 0.1
v -0.1 0.2 0.1
v -0.1 0.3 0.1
v -0.1 0.4 0.1
v -0.1 0.5 0.1
v -0.1 0.6 0.1
v 0 0.1 0.1
v 0 0.2 0.1
v 0 0.3 0.1
v 0 0.4 0.1
v 0 0.5 0.1
v 0 0.7 0.1
v 0 0.8 0.1
v 0.1 0 0.1
v 0.1 0.1 0.1
v 0.1 0.2 0.1
v 0.1 0.3 0.1
v 0.1 0.4 0.1
v 0.1 0.5 0.1
v 0.1 0.7 0.1
v 0.2 -0.1 0.1
v 0.2 0 0.1
v 0.2 0.1 0.1
v 0.2 0.2 0.1
v 0.2 0.3 0.1
v 0.3 -0.2 0.1
v 0.3 -0.1 0.1
v 0.3 0 0.1
v 0.3 0.1 0.1
v 0.3 0.2 0.1
v 0.4 -0.3 0.1
v 0.4 -0.2 0.1
v 0.4 -0.1 0.1
v 0.4 0 0.1
v 0.4 0.1 0.1
v 0.5 -0.4 0.1
v 0.5 -0.3 0.1
v 0.5 -0.2 0.1
v 0.5 -0.1 0.1
v 0.5 0 0.1
v 0.6 -0.4 0.1
v 0.6 -0.3 0.1
v 0.6 -0.2 0.1
v 0.6 -0.1 0.1
v 0.7 -0.4 0.1
v 0.7 -0.3 0.1
v 0.7 -0.2 0.1
v -0.7 0.3 0
v -0.7 0.5 0
v -0.6 0.2 0
v -0.6 0.3 0
v -0.6 0.5 0
v -0.6 0.6 0
v -0.5 0.1 0
v -0.5 0.2 0
v -0.5 0.3 0
v -0.5 0.4 0
v -0.5 0.5 0
v -0.4 0 0
v -0.4 0.1 0
v -0.4 0.2 0
v -0.4 0.3 0
v -0.4 0.4 0
v -0.4 0.5 0
v -0.4 0.6 0
v -0.4 0.7 0
v -0.3 0.2 0
v -0.3 0.3 0
v -0.3 0.4 0
v -0.3 0.5 0
v -0.3 0.6 0
v -0.3 0.7 0
v -0.2 0 0
v -0.2 0.1 0
v -0.2 0.2 0
v -0.2 0.3 0
v -0.2 0.4 0
v -0.2 0.5 0
v -0.2 0.6 0
v -0.2 0.7 0
v -0.2 0.8 0
v -0.1 0.1 0
v -0.1 0.2 0
v -0.1 0.3 0
v -0.1 0.4 0
v -0.1 0.5 0
v -0.1 0.6 0
v 0 0.1 0
v 0 0.2 0
v 0 0.3 0
v 0 0.4 0
v 0 0.5 0
v 0 0.7 0
v 0 0.8 0
v 0.1 0 0
v 0.1 0.1 0
v 0.1 0.2 0
v 0.1 0.3 0
v 0.1 0.4 0
v 0.1 0.5 0
v 0.1 0.7 0
v 0.2 -0.1 0
v 0.2 0 0
v 0.2 0.1 0
v 0.2 0.2 0
v 0.2 0.3 0
v 0.3 -0.2 0
v 0.3 -0.1 0
v 0.3 0 0
v 0.3 0.1 0
v 0.3 0.2 0
v 0.4 -0.3 0
v 0.4 -0.2 0
v 0.4 -0.1 0
v 0.4 0 0
v 0.4 0.1 0
v 0.5 -0.4 0
v 0.5 -0.3 0
v 0.5 -0.2 0
v 0.5 -0.1 0
v 0.5 0 0
v 0.6 -0.4 0
v 0.6 -0.3 0
v 0.6 -0.2 0
v 0.6 -0.1 0
v 0.7 -0.4 0
v 0.7 -0.3 0
v 0.7 -0.2 0
v 0.5 -0.4 0.1
v 0.6 -0.4 0.1
v 0.7 -0.4 0.1
v 0.5 -0.4 0
v 0.6 -0.4 0
v 0.7 -0.4 0
v 0.4 -0.3 0.1
v 0.5 -0.3 0.1
v 0.4 -0.3 0
v 0.5 -0.3 0
v 0.3 -0.2 0.1
v 0.4 -0.2 0.1
v 0.3 -0.2 0
v 0.4 -0.2 0
v 0.2 -0.1 0.1
v 0.3 -0.1 0.1
v 0.2 -0.1 0
v 0.3 -0.1 0
v -0.4 0 0.1
v -0.2 0 0.1
v 0.1 0 0.1
v 0.2 0 0.1
v -0.4 0 0
v -0.2 0 0
v 0.1 0 0
v 0.2 0 0
v -0.5 0.1 0.1
v -0.4 0.1 0.1
v -0.2 0.1 0.1
v -0.1 0.1 0.1
v 0 0.1 0.1
v 0.1 0.1 0.1
v -0.5 0.1 0
v -0.4 0.1 0
v -0.2 0.1 0
v -0.1 0.1 0
v 0 0.1 0
v 0.1 0.1 0
v -0.6 0.2 0.1
v -0.5 0.2 0.1
v -0.1 0.2 0.1
v 0 0.2 0.1
v -0.6 0.2 0
v -0.5 0.2 0
v -0.1 0.2 0
v 0 0.2 0
v -0.7 0.3 0.1
v -0.6 0.3 0.1
v -0.7 0.3 0
v -0.6 0.3 0
v 0 0.5 0.1
v 0.1 0.5 0.1
v 0 0.5 0
v 0.1 0.5 0
v 0.6 -0.2 0.1
v 0.7 -0.2 0.1
v 0.6 -0.2 0
v 0.7 -0.2 0
v 0.5 -0.1 0.1
v 0.6 -0.1 0.1
v 0.5 -0.1 0
v 0.6 -0.1 0
v 0.4 0 0.1
v 0.5 0 0.1
v 0.4 0 0
v 0.5 0 0
v 0.3 0.1 0.1
v 0.4 0.1 0.1
v 0.3 0.1 0
v 0.4 0.1 0
v 0.2 0.2 0.1
v 0.3 0.2 0.1
v 0.2 0.2 0
v 0.3 0.2 0
v 0.1 0.3 0.1
v 0.2 0.3 0.1
v 0.1 0.3 0
v 0.2 0.3 0
v 0 0.4 0.1
v 0.1 0.4 0.1
v 0 0.4 0
v 0.1 0.4 0
v -0.7 0.5 0.1
v -0.6 0.5 0.1
v -0.7 0.5 0
v -0.6 0.5 0
v -0.6 0.6 0.1
v -0.4 0.6 0.1
v -0.6 0.6 0
v -0.4 0.6 0
v -0.4 0.7 0.1
v -0.3 0.7 0.1
v -0.2 0.7 0.1
v 0 0.7 0.1
v 0.1 0.7 0.1
v -0.4 0.7 0
v -0.3 0.7 0
v -0.2 0.7 0
v 0 0.7 0
v 0.1 0.7 0
v -0.2 0.8 0.1
v 0 0.8 0.1
v -0.2 0.8 0
v 0 0.8 0

# faces
f 3/7/1 2/7/1 1/7/1
f 4/7/1 2/7/1 3/7/1
f 7/7/1 6/7/1 5/7/1
f 8/7/1 6/7/1 7/7/1
f 11/7/1 10/7/1 9/7/1
f 12/7/1 10/7/1 11/7/1
f 15/7/1 14/7/1 13/7/1
f 16/7/1 14/7/1 15/7/1
f 19/7/1 18/7/1 17/7/1
f 20/7/1 18/7/1 19/7/1
f 23/5/1 22/5/1 21/5/1
f 24/5/1 22/5/1 23/5/1
f 27/7/1 26/7/1 25/7/1
f 28/7/1 26/7/1 27/7/1
f 31/4/1 30/4/1 29/4/1
f 32/4/1 30/4/1 31/4/1
f 35/4/1 34/4/1 33/4/1
f 36/4/1 34/4/1 35/4/1
f 39/4/1 38/4/1 37/4/1
f 40/4/1 38/4/1 39/4/1
f 43/4/1 42/4/1 41/4/1
f 44/4/1 42/4/1 43/4/1
f 47/4/1 46/4/1 45/4/1
f 48/4/1 46/4/1 47/4/1
f 51/4/1 50/4/1 49/4/1
f 52/4/1 50/4/1 51/4/1
f 53/7/2 54/7/2 55/7/2
f 55/7/2 54/7/2 56/7/2
f 57/7/2 58/7/2 59/7/2
f 59/7/2 58/7/2 60/7/2
f 61/6/2 62/6/2 63/6/2
f 63/6/2 62/6/2 64/6/2
f 65/7/2 66/7/2 67/7/2
f 67/7/2 66/7/2 68/7/2
f 69/6/2 70/6/2 71/6/2
f 71/6/2 70/6/2 72/6/2
f 73/7/2 74/7/2 75/7/2
f 75/7/2 74/7/2 76/7/2
f 77/6/2 78/6/2 79/6/2
f 79/6/2 78/6/2 80/6/2
f 81/6/2 82/6/2 83/6/2
f 83/6/2 82/6/2 84/6/2
f 85/6/2 86/6/2 87/6/2
f 87/6/2 86/6/2 88/6/2
f 89/6/2 90/6/2 91/6/2
f 91/6/2 90/6/2 92/6/2
f 93/6/2 94/6/2 95/6/2
f 95/6/2 94/6/2 96/6/2
f 97/5/2 98/5/2 99/5/2
f 99/5/2 98/5/2 100/5/2
f 99/6/2 100/6/2 101/6/2
f 101/6/2 100/6/2 102/6/2
f 106/7/3 104/7/3 103/7/3
f 107/7/3 104/7/3 106/7/3
f 110/7/3 106/7/3 105/7/3
f 111/8/3 107/8/3 106/8/3
f 111/7/3 106/7/3 110/7/3
f 112/8/3 107/8/3 111/8/3
f 113/7/3 108/7/3 107/7/3
f 113/8/3 107/8/3 112/8/3
f 115/7/3 110/7/3 109/7/3
f 116/8/3 111/8/3 110/8/3
f 116/7/3 110/7/3 115/7/3
f 117/9/3 112/9/3 111/9/3
f 117/8/3 111/8/3 116/8/3
f 118/1/3 113/1/3 112/1/3
f 118/9/3 112/9/3 117/9/3
f 119/7/3 108/7/3 113/7/3
f 119/1/3 113/1/3 118/1/3
f 120/7/3 108/7/3 119/7/3
f 122/8/3 116/8/3 115/8/3
f 122/9/3 118/9/3 117/9/3
f 122/9/3 117/9/3 116/9/3
f 122/9/3 119/9/3 118/9/3
f 123/9/3 119/9/3 122/9/3
f 124/9/3 119/9/3 123/9/3
f 125/4/3 120/4/3 119/4/3
f 125/9/3 119/9/3 124/9/3
f 126/5/3 121/5/3 120/5/3
f 126/4/3 120/4/3 125/4/3
f 127/5/3 121/5/3 126/5/3
f 128/7/3 115/7/3 114/7/3
f 129/8/3 122/8/3 115/8/3
f 129/7/3 115/7/3 128/7/3
f 130/1/3 123/1/3 122/1/3
f 130/8/3 122/8/3 129/8/3
f 131/9/3 124/9/3 123/9/3
f 131/1/3 123/1/3 130/1/3
f 132/2/3 125/2/3 124/2/3
f 132/9/3 124/9/3 131/9/3
f 133/3/3 126/3/3 125/3/3
f 133/2/3 125/2/3 132/2/3
f 134/6/3 127/6/3 126/6/3
f 134/3/3 126/3/3 133/3/3
f 135/6/3 127/6/3 134/6/3
f 137/7/3 131/7/3 130/7/3
f 137/7/3 130/7/3 129/7/3
f 138/7/3 131/7/3 137/7/3
f 139/4/3 132/4/3 131/4/3
f 139/7/3 131/7/3 138/7/3
f 140/3/3 133/3/3 132/3/3
f 140/4/3 132/4/3 139/4/3
f 141/2/3 134/2/3 133/2/3
f 141/3/3 133/3/3 140/3/3
f 142/3/3 135/3/3 134/3/3
f 142/2/3 134/2/3 141/2/3
f 144/4/3 139/4/3 138/4/3
f 145/5/3 140/5/3 139/5/3
f 145/4/3 139/4/3 144/4/3
f 146/6/3 141/6/3 140/6/3
f 146/5/3 140/5/3 145/5/3
f 147/3/3 142/3/3 141/3/3
f 147/6/3 141/6/3 146/6/3
f 148/7/3 136/7/3 135/7/3
f 148/3/3 142/3/3 147/3/3
f 148/3/3 135/3/3 142/3/3
f 149/7/3 136/7/3 148/7/3
f 151/4/3 144/4/3 143/4/3
f 152/5/3 145/5/3 144/5/3
f 152/4/3 144/4/3 151/4/3
f 153/6/3 146/6/3 145/6/3
f 153/5/3 145/5/3 152/5/3
f 154/6/3 146/6/3 153/6/3
f 155/7/3 148/7/3 147/7/3
f 156/7/3 148/7/3 155/7/3
f 158/4/3 151/4/3 150/4/3
f 159/5/3 152/5/3 151/5/3
f 159/4/3 151/4/3 158/4/3
f 160/6/3 153/6/3 152/6/3
f 160/5/3 152/5/3 159/5/3
f 161/6/3 153/6/3 160/6/3
f 163/4/3 158/4/3 157/4/3
f 164/5/3 159/5/3 158/5/3
f 164/4/3 158/4/3 163/4/3
f 165/6/3 160/6/3 159/6/3
f 165/5/3 159/5/3 164/5/3
f 166/6/3 160/6/3 165/6/3
f 168/4/3 163/4/3 162/4/3
f 169/5/3 164/5/3 163/5/3
f 169/4/3 163/4/3 168/4/3
f 170/6/3 165/6/3 164/6/3
f 170/5/3 164/5/3 169/5/3
f 171/6/3 165/6/3 170/6/3
f 173/4/3 168/4/3 167/4/3
f 174/5/3 169/5/3 168/5/3
f 174/4/3 168/4/3 173/4/3
f 175/6/3 170/6/3 169/6/3
f 175/5/3 169/5/3 174/5/3
f 176/6/3 170/6/3 175/6/3
f 177/4/3 173/4/3 172/4/3
f 178/5/3 174/5/3 173/5/3
f 178/4/3 173/4/3 177/4/3
f 179/6/3 175/6/3 174/6/3
f 179/5/3 174/5/3 178/5/3
f 180/6/3 175/6/3 179/6/3
f 181/5/3 178/5/3 177/5/3
f 182/6/3 179/6/3 178/6/3
f 182/5/3 178/5/3 181/5/3
f 183/6/3 179/6/3 182/6/3
f 184/7/4 185/7/4 187/7/4
f 187/7/4 185/7/4 188/7/4
f 186/7/4 187/7/4 191/7/4
f 187/8/4 188/8/4 192/8/4
f 191/7/4 187/7/4 192/7/4
f 192/8/4 188/8/4 193/8/4
f 188/7/4 189/7/4 194/7/4
f 193/8/4 188/8/4 194/8/4
f 190/7/4 191/7/4 196/7/4
f 191/8/4 192/8/4 197/8/4
f 196/7/4 191/7/4 197/7/4
f 192/9/4 193/9/4 198/9/4
f 197/8/4 192/8/4 198/8/4
f 193/1/4 194/1/4 199/1/4
f 198/9/4 193/9/4 199/9/4
f 194/7/4 189/7/4 200/7/4
f 199/1/4 194/1/4 200/1/4
f 200/7/4 189/7/4 201/7/4
f 196/8/4 197/8/4 203/8/4
f 198/9/4 199/9/4 203/9/4
f 197/9/4 198/9/4 203/9/4
f 199/9/4 200/9/4 203/9/4
f 203/9/4 200/9/4 204/9/4
f 204/9/4 200/9/4 205/9/4
f 200/4/4 201/4/4 206/4/4
f 205/9/4 200/9/4 206/9/4
f 201/5/4 202/5/4 207/5/4
f 206/4/4 201/4/4 207/4/4
f 207/5/4 202/5/4 208/5/4
f 195/7/4 196/7/4 209/7/4
f 196/8/4 203/8/4 210/8/4
f 209/7/4 196/7/4 210/7/4
f 203/1/4 204/1/4 211/1/4
f 210/8/4 203/8/4 211/8/4
f 204/9/4 205/9/4 212/9/4
f 211/1/4 204/1/4 212/1/4
f 205/2/4 206/2/4 213/2/4
f 212/9/4 205/9/4 213/9/4
f 206/3/4 207/3/4 214/3/4
f 213/2/4 206/2/4 214/2/4
f 207/6/4 208/6/4 215/6/4
f 214/3/4 207/3/4 215/3/4
f 215/6/4 208/6/4 216/6/4
f 211/7/4 212/7/4 218/7/4
f 210/7/4 211/7/4 218/7/4
f 218/7/4 212/7/4 219/7/4
f 212/4/4 213/4/4 220/4/4
f 219/7/4 212/7/4 220/7/4
f 213/3/4 214/3/4 221/3/4
f 220/4/4 213/4/4 221/4/4
f 214/2/4 215/2/4 222/2/4
f 221/3/4 214/3/4 222/3/4
f 215/3/4 216/3/4 223/3/4
f 222/2/4 215/2/4 223/2/4
f 219/4/4 220/4/4 225/4/4
f 220/5/4 221/5/4 226/5/4
f 225/4/4 220/4/4 226/4/4
f 221/6/4 222/6/4 227/6/4
f 226/5/4 221/5/4 227/5/4
f 222/3/4 223/3/4 228/3/4
f 227/6/4 222/6/4 228/6/4
f 216/7/4 217/7/4 229/7/4
f 228/3/4 223/3/4 229/3/4
f 223/3/4 216/3/4 229/3/4
f 229/7/4 217/7/4 230/7/4
f 224/4/4 225/4/4 232/4/4
f 225/5/4 226/5/4 233/5/4
f 232/4/4 225/4/4 233/4/4
f 226/6/4 227/6/4 234/6/4
f 233/5/4 226/5/4 234/5/4
f 234/6/4 227/6/4 235/6/4
f 228/7/4 229/7/4 236/7/4
f 236/7/4 229/7/4 237/7/4
f 231/4/4 232/4/4 239/4/4
f 232/5/4 233/5/4 240/5/4
f 239/4/4 232/4/4 240/4/4
f 233/6/4 234/6/4 241/6/4
f 240/5/4 233/5/4 241/5/4
f 241/6/4 234/6/4 242/6/4
f 238/4/4 239/4/4 244/4/4
f 239/5/4 240/5/4 245/5/4
f 244/4/4 239/4/4 245/4/4
f 240/6/4 241/6/4 246/6/4
f 245/5/4 240/5/4 246/5/4
f 246/6/4 241/6/4 247/6/4
f 243/4/4 244/4/4 249/4/4
f 244/5/4 245/5/4 250/5/4
f 249/4/4 244/4/4 250/4/4
f 245/6/4 246/6/4 251/6/4
f 250/5/4 245/5/4 251/5/4
f 251/6/4 246/6/4 252/6/4
f 248/4/4 249/4/4 254/4/4
f 249/5/4 250/5/4 255/5/4
f 254/4/4 249/4/4 255/4/4
f 250/6/4 251/6/4 256/6/4
f 255/5/4 250/5/4 256/5/4
f 256/6/4 251/6/4 257/6/4
f 253/4/4 254/4/4 258/4/4
f 254/5/4 255/5/4 259/5/4
f 258/4/4 254/4/4 259/4/4
f 255/6/4 256/6/4 260/6/4
f 259/5/4 255/5/4 260/5/4
f 260/6/4 256/6/4 261/6/4
f 258/5/4 259/5/4 262/5/4
f 259/6/4 260/6/4 263/6/4
f 262/5/4 259/5/4 263/5/4
f 263/6/4 260/6/4 264/6/4
f 268/4/5 266/4/5 265/4/5
f 269/5/5 267/5/5 266/5/5
f 269/4/5 266/4/5 268/4/5
f 270/5/5 267/5/5 269/5/5
f 273/4/5 272/4/5 271/4/5
f 274/4/5 272/4/5 273/4/5
f 277/4/5 276/4/5 275/4/5
f 278/4/5 276/4/5 277/4/5
f 281/4/5 280/4/5 279/4/5
f 282/4/5 280/4/5 281/4/5
f 287/7/5 284/7/5 283/7/5
f 288/7/5 284/7/5 287/7/5
f 289/4/5 286/4/5 285/4/5
f 290/4/5 286/4/5 289/4/5
f 297/7/5 292/7/5 291/7/5
f 298/7/5 292/7/5 297/7/5
f 299/7/5 294/7/5 293/7/5
f 300/7/5 294/7/5 299/7/5
f 301/4/5 296/4/5 295/4/5
f 302/4/5 296/4/5 301/4/5
f 307/7/5 304/7/5 303/7/5
f 308/7/5 304/7/5 307/7/5
f 309/4/5 306/4/5 305/4/5
f 310/4/5 306/4/5 309/4/5
f 313/7/5 312/7/5 311/7/5
f 314/7/5 312/7/5 313/7/5
f 317/7/5 316/7/5 315/7/5
f 318/7/5 316/7/5 317/7/5
f 319/6/6 320/6/6 321/6/6
f 321/6/6 320/6/6 322/6/6
f 323/6/6 324/6/6 325/6/6
f 325/6/6 324/6/6 326/6/6
f 327/6/6 328/6/6 329/6/6
f 329/6/6 328/6/6 330/6/6
f 331/6/6 332/6/6 333/6/6
f 333/6/6 332/6/6 334/6/6
f 335/6/6 336/6/6 337/6/6
f 337/6/6 336/6/6 338/6/6
f 339/6/6 340/6/6 341/6/6
f 341/6/6 340/6/6 342/6/6
f 343/6/6 344/6/6 345/6/6
f 345/6/6 344/6/6 346/6/6
f 347/7/6 348/7/6 349/7/6
f 349/7/6 348/7/6 350/7/6
f 351/7/6 352/7/6 353/7/6
f 353/7/6 352/7/6 354/7/6
f 355/5/6 356/5/6 360/5/6
f 356/6/6 357/6/6 361/6/6
f 360/5/6 356/5/6 361/5/6
f 361/6/6 357/6/6 362/6/6
f 358/7/6 359/7/6 363/7/6
f 363/7/6 359/7/6 364/7/6
f 365/7/6 366/7/6 367/7/6
f 367/7/6 366/7/6 368/7/6
