# MagicaVoxel @ Ephtracy

# group
o 

# material
mtllib Gold Axe.mtl
usemtl palette

# normals
vn -1 0 0
vn 1 0 0
vn 0 0 1
vn 0 0 -1
vn 0 -1 0
vn 0 1 0

# texcoords
vt 0.814453 0.5
vt 0.818359 0.5
vt 0.822266 0.5
vt 0.826172 0.5
vt 0.970703 0.5
vt 0.974609 0.5
vt 0.978516 0.5

# verts
v -0.7 0.3 0.1
v -0.7 0.3 0
v -0.7 0.5 0.1
v -0.7 0.5 0
v -0.6 0.2 0.1
v -0.6 0.2 0
v -0.6 0.3 0.1
v -0.6 0.3 0
v -0.6 0.5 0.1
v -0.6 0.5 0
v -0.6 0.6 0.1
v -0.6 0.6 0
v -0.5 0.1 0.1
v -0.5 0.1 0
v -0.5 0.2 0.1
v -0.5 0.2 0
v -0.4 0 0.1
v -0.4 0 0
v -0.4 0.1 0.1
v -0.4 0.1 0
v -0.4 0.6 0.1
v -0.4 0.6 0
v -0.4 0.7 0.1
v -0.4 0.7 0
v -0.2 0.7 0.1
v -0.2 0.7 0
v -0.2 0.8 0.1
v -0.2 0.8 0
v 0 0.1 0.1
v 0 0.1 0
v 0 0.2 0.1
v 0 0.2 0
v 0.1 0 0.1
v 0.1 0 0
v 0.1 0.1 0.1
v 0.1 0.1 0
v 0.2 -0.1 0.1
v 0.2 -0.1 0
v 0.2 0 0.1
v 0.2 0 0
v 0.3 -0.2 0.1
v 0.3 -0.2 0
v 0.3 -0.1 0.1
v 0.3 -0.1 0
v 0.4 -0.3 0.1
v 0.4 -0.3 0
v 0.4 -0.2 0.1
v 0.4 -0.2 0
v 0.5 -0.4 0.1
v 0.5 -0.4 0
v 0.5 -0.3 0.1
v 0.5 -0.3 0
v -0.2 0 0.1
v -0.2 0 0
v -0.2 0.1 0.1
v -0.2 0.1 0
v -0.1 0.1 0.1
v -0.1 0.1 0
v -0.1 0.2 0.1
v -0.1 0.2 0
v 0 0.4 0.1
v 0 0.4 0
v 0 0.5 0.1
v 0 0.5 0
v 0 0.7 0.1
v 0 0.7 0
v 0 0.8 0.1
v 0 0.8 0
v 0.1 0.3 0.1
v 0.1 0.3 0
v 0.1 0.4 0.1
v 0.1 0.4 0
v 0.1 0.5 0.1
v 0.1 0.5 0
v 0.1 0.7 0.1
v 0.1 0.7 0
v 0.2 0.2 0.1
v 0.2 0.2 0
v 0.2 0.3 0.1
v 0.2 0.3 0
v 0.3 0.1 0.1
v 0.3 0.1 0
v 0.3 0.2 0.1
v 0.3 0.2 0
v 0.4 0 0.1
v 0.4 0 0
v 0.4 0.1 0.1
v 0.4 0.1 0
v 0.5 -0.1 0.1
v 0.5 -0.1 0
v 0.5 0 0.1
v 0.5 0 0
v 0.6 -0.2 0.1
v 0.6 -0.2 0
v 0.6 -0.1 0.1
v 0.6 -0.1 0
v 0.7 -0.4 0.1
v 0.7 -0.4 0
v 0.7 -0.3 0.1
v 0.7 -0.3 0
v 0.7 -0.2 0.1
v 0.7 -0.2 0
v -0.7 0.3 0.1
v -0.7 0.5 0.1
v -0.6 0.2 0.1
v -0.6 0.3 0.1
v -0.6 0.5 0.1
v -0.6 0.6 0.1
v -0.5 0.1 0.1
v -0.5 0.2 0.1
v -0.5 0.3 0.1
v -0.5 0.4 0.1
v -0.4 0 0.1
v -0.4 0.1 0.1
v -0.4 0.2 0.1
v -0.4 0.3 0.1
v -0.4 0.4 0.1
v -0.4 0.5 0.1
v -0.4 0.6 0.1
v -0.4 0.7 0.1
v -0.3 0.2 0.1
v -0.3 0.3 0.1
v -0.3 0.4 0.1
v -0.3 0.5 0.1
v -0.3 0.6 0.1
v -0.3 0.7 0.1
v -0.2 0 0.1
v -0.2 0.1 0.1
v -0.2 0.3 0.1
v -0.2 0.4 0.1
v -0.2 0.5 0.1
v -0.2 0.6 0.1
v -0.2 0.7 0.1
v -0.2 0.8 0.1
v -0.1 0.1 0.1
v -0.1 0.2 0.1
v -0.1 0.3 0.1
v -0.1 0.4 0.1
v -0.1 0.5 0.1
v -0.1 0.6 0.1
v 0 0.1 0.1
v 0 0.2 0.1
v 0 0.3 0.1
v 0 0.4 0.1
v 0 0.5 0.1
v 0 0.7 0.1
v 0 0.8 0.1
v 0.1 0 0.1
v 0.1 0.1 0.1
v 0.1 0.2 0.1
v 0.1 0.3 0.1
v 0.1 0.4 0.1
v 0.1 0.5 0.1
v 0.1 0.7 0.1
v 0.2 -0.1 0.1
v 0.2 0 0.1
v 0.2 0.1 0.1
v 0.2 0.2 0.1
v 0.2 0.3 0.1
v 0.3 -0.2 0.1
v 0.3 -0.1 0.1
v 0.3 0 0.1
v 0.3 0.1 0.1
v 0.3 0.2 0.1
v 0.4 -0.3 0.1
v 0.4 -0.2 0.1
v 0.4 -0.1 0.1
v 0.4 0 0.1
v 0.4 0.1 0.1
v 0.5 -0.4 0.1
v 0.5 -0.3 0.1
v 0.5 -0.2 0.1
v 0.5 -0.1 0.1
v 0.5 0 0.1
v 0.6 -0.4 0.1
v 0.6 -0.3 0.1
v 0.6 -0.2 0.1
v 0.6 -0.1 0.1
v 0.7 -0.4 0.1
v 0.7 -0.3 0.1
v 0.7 -0.2 0.1
v -0.7 0.3 0
v -0.7 0.5 0
v -0.6 0.2 0
v -0.6 0.3 0
v -0.6 0.5 0
v -0.6 0.6 0
v -0.5 0.1 0
v -0.5 0.2 0
v -0.5 0.3 0
v -0.5 0.4 0
v -0.4 0 0
v -0.4 0.1 0
v -0.4 0.2 0
v -0.4 0.3 0
v -0.4 0.4 0
v -0.4 0.5 0
v -0.4 0.6 0
v -0.4 0.7 0
v -0.3 0.2 0
v -0.3 0.3 0
v -0.3 0.4 0
v -0.3 0.5 0
v -0.3 0.6 0
v -0.3 0.7 0
v -0.2 0 0
v -0.2 0.1 0
v -0.2 0.3 0
v -0.2 0.4 0
v -0.2 0.5 0
v -0.2 0.6 0
v -0.2 0.7 0
v -0.2 0.8 0
v -0.1 0.1 0
v -0.1 0.2 0
v -0.1 0.3 0
v -0.1 0.4 0
v -0.1 0.5 0
v -0.1 0.6 0
v 0 0.1 0
v 0 0.2 0
v 0 0.3 0
v 0 0.4 0
v 0 0.5 0
v 0 0.7 0
v 0 0.8 0
v 0.1 0 0
v 0.1 0.1 0
v 0.1 0.2 0
v 0.1 0.3 0
v 0.1 0.4 0
v 0.1 0.5 0
v 0.1 0.7 0
v 0.2 -0.1 0
v 0.2 0 0
v 0.2 0.1 0
v 0.2 0.2 0
v 0.2 0.3 0
v 0.3 -0.2 0
v 0.3 -0.1 0
v 0.3 0 0
v 0.3 0.1 0
v 0.3 0.2 0
v 0.4 -0.3 0
v 0.4 -0.2 0
v 0.4 -0.1 0
v 0.4 0 0
v 0.4 0.1 0
v 0.5 -0.4 0
v 0.5 -0.3 0
v 0.5 -0.2 0
v 0.5 -0.1 0
v 0.5 0 0
v 0.6 -0.4 0
v 0.6 -0.3 0
v 0.6 -0.2 0
v 0.6 -0.1 0
v 0.7 -0.4 0
v 0.7 -0.3 0
v 0.7 -0.2 0
v 0.5 -0.4 0.1
v 0.6 -0.4 0.1
v 0.7 -0.4 0.1
v 0.5 -0.4 0
v 0.6 -0.4 0
v 0.7 -0.4 0
v 0.4 -0.3 0.1
v 0.5 -0.3 0.1
v 0.4 -0.3 0
v 0.5 -0.3 0
v 0.3 -0.2 0.1
v 0.4 -0.2 0.1
v 0.3 -0.2 0
v 0.4 -0.2 0
v 0.2 -0.1 0.1
v 0.3 -0.1 0.1
v 0.2 -0.1 0
v 0.3 -0.1 0
v -0.4 0 0.1
v -0.2 0 0.1
v 0.1 0 0.1
v 0.2 0 0.1
v -0.4 0 0
v -0.2 0 0
v 0.1 0 0
v 0.2 0 0
v -0.5 0.1 0.1
v -0.4 0.1 0.1
v -0.2 0.1 0.1
v -0.1 0.1 0.1
v 0 0.1 0.1
v 0.1 0.1 0.1
v -0.5 0.1 0
v -0.4 0.1 0
v -0.2 0.1 0
v -0.1 0.1 0
v 0 0.1 0
v 0.1 0.1 0
v -0.6 0.2 0.1
v -0.5 0.2 0.1
v -0.1 0.2 0.1
v 0 0.2 0.1
v -0.6 0.2 0
v -0.5 0.2 0
v -0.1 0.2 0
v 0 0.2 0
v -0.7 0.3 0.1
v -0.6 0.3 0.1
v -0.7 0.3 0
v -0.6 0.3 0
v 0 0.5 0.1
v 0.1 0.5 0.1
v 0 0.5 0
v 0.1 0.5 0
v 0.6 -0.2 0.1
v 0.7 -0.2 0.1
v 0.6 -0.2 0
v 0.7 -0.2 0
v 0.5 -0.1 0.1
v 0.6 -0.1 0.1
v 0.5 -0.1 0
v 0.6 -0.1 0
v 0.4 0 0.1
v 0.5 0 0.1
v 0.4 0 0
v 0.5 0 0
v 0.3 0.1 0.1
v 0.4 0.1 0.1
v 0.3 0.1 0
v 0.4 0.1 0
v 0.2 0.2 0.1
v 0.3 0.2 0.1
v 0.2 0.2 0
v 0.3 0.2 0
v 0.1 0.3 0.1
v 0.2 0.3 0.1
v 0.1 0.3 0
v 0.2 0.3 0
v 0 0.4 0.1
v 0.1 0.4 0.1
v 0 0.4 0
v 0.1 0.4 0
v -0.7 0.5 0.1
v -0.6 0.5 0.1
v -0.7 0.5 0
v -0.6 0.5 0
v -0.6 0.6 0.1
v -0.4 0.6 0.1
v -0.6 0.6 0
v -0.4 0.6 0
v -0.4 0.7 0.1
v -0.3 0.7 0.1
v -0.2 0.7 0.1
v 0 0.7 0.1
v 0.1 0.7 0.1
v -0.4 0.7 0
v -0.3 0.7 0
v -0.2 0.7 0
v 0 0.7 0
v 0.1 0.7 0
v -0.2 0.8 0.1
v 0 0.8 0.1
v -0.2 0.8 0
v 0 0.8 0

# faces
f 3/2/1 2/2/1 1/2/1
f 4/2/1 2/2/1 3/2/1
f 7/2/1 6/2/1 5/2/1
f 8/2/1 6/2/1 7/2/1
f 11/2/1 10/2/1 9/2/1
f 12/2/1 10/2/1 11/2/1
f 15/2/1 14/2/1 13/2/1
f 16/2/1 14/2/1 15/2/1
f 19/2/1 18/2/1 17/2/1
f 20/2/1 18/2/1 19/2/1
f 23/6/1 22/6/1 21/6/1
f 24/6/1 22/6/1 23/6/1
f 27/2/1 26/2/1 25/2/1
f 28/2/1 26/2/1 27/2/1
f 31/5/1 30/5/1 29/5/1
f 32/5/1 30/5/1 31/5/1
f 35/5/1 34/5/1 33/5/1
f 36/5/1 34/5/1 35/5/1
f 39/5/1 38/5/1 37/5/1
f 40/5/1 38/5/1 39/5/1
f 43/5/1 42/5/1 41/5/1
f 44/5/1 42/5/1 43/5/1
f 47/5/1 46/5/1 45/5/1
f 48/5/1 46/5/1 47/5/1
f 51/5/1 50/5/1 49/5/1
f 52/5/1 50/5/1 51/5/1
f 53/2/2 54/2/2 55/2/2
f 55/2/2 54/2/2 56/2/2
f 57/2/2 58/2/2 59/2/2
f 59/2/2 58/2/2 60/2/2
f 61/7/2 62/7/2 63/7/2
f 63/7/2 62/7/2 64/7/2
f 65/2/2 66/2/2 67/2/2
f 67/2/2 66/2/2 68/2/2
f 69/7/2 70/7/2 71/7/2
f 71/7/2 70/7/2 72/7/2
f 73/2/2 74/2/2 75/2/2
f 75/2/2 74/2/2 76/2/2
f 77/7/2 78/7/2 79/7/2
f 79/7/2 78/7/2 80/7/2
f 81/7/2 82/7/2 83/7/2
f 83/7/2 82/7/2 84/7/2
f 85/7/2 86/7/2 87/7/2
f 87/7/2 86/7/2 88/7/2
f 89/7/2 90/7/2 91/7/2
f 91/7/2 90/7/2 92/7/2
f 93/7/2 94/7/2 95/7/2
f 95/7/2 94/7/2 96/7/2
f 97/6/2 98/6/2 99/6/2
f 99/6/2 98/6/2 100/6/2
f 99/7/2 100/7/2 101/7/2
f 101/7/2 100/7/2 102/7/2
f 106/2/3 104/2/3 103/2/3
f 107/2/3 104/2/3 106/2/3
f 110/2/3 106/2/3 105/2/3
f 111/1/3 107/1/3 106/1/3
f 111/2/3 106/2/3 110/2/3
f 112/1/3 107/1/3 111/1/3
f 114/2/3 110/2/3 109/2/3
f 115/1/3 111/1/3 110/1/3
f 115/2/3 110/2/3 114/2/3
f 116/3/3 112/3/3 111/3/3
f 116/1/3 111/1/3 115/1/3
f 117/1/3 107/1/3 112/1/3
f 117/3/3 112/3/3 116/3/3
f 118/2/3 108/2/3 107/2/3
f 118/1/3 107/1/3 117/1/3
f 119/2/3 108/2/3 118/2/3
f 121/3/3 117/3/3 116/3/3
f 121/3/3 116/3/3 115/3/3
f 121/1/3 115/1/3 114/1/3
f 121/3/3 118/3/3 117/3/3
f 122/3/3 118/3/3 121/3/3
f 123/3/3 118/3/3 122/3/3
f 124/5/3 119/5/3 118/5/3
f 124/3/3 118/3/3 123/3/3
f 125/6/3 120/6/3 119/6/3
f 125/5/3 119/5/3 124/5/3
f 126/6/3 120/6/3 125/6/3
f 127/2/3 114/2/3 113/2/3
f 128/1/3 121/1/3 114/1/3
f 128/2/3 114/2/3 127/2/3
f 128/1/3 122/1/3 121/1/3
f 129/3/3 123/3/3 122/3/3
f 129/1/3 122/1/3 128/1/3
f 130/4/3 124/4/3 123/4/3
f 130/3/3 123/3/3 129/3/3
f 131/3/3 125/3/3 124/3/3
f 131/4/3 124/4/3 130/4/3
f 132/7/3 126/7/3 125/7/3
f 132/3/3 125/3/3 131/3/3
f 133/7/3 126/7/3 132/7/3
f 135/2/3 129/2/3 128/2/3
f 136/2/3 129/2/3 135/2/3
f 137/5/3 130/5/3 129/5/3
f 137/2/3 129/2/3 136/2/3
f 138/3/3 131/3/3 130/3/3
f 138/5/3 130/5/3 137/5/3
f 139/4/3 132/4/3 131/4/3
f 139/3/3 131/3/3 138/3/3
f 140/3/3 133/3/3 132/3/3
f 140/4/3 132/4/3 139/4/3
f 142/5/3 137/5/3 136/5/3
f 143/6/3 138/6/3 137/6/3
f 143/5/3 137/5/3 142/5/3
f 144/7/3 139/7/3 138/7/3
f 144/6/3 138/6/3 143/6/3
f 145/3/3 140/3/3 139/3/3
f 145/7/3 139/7/3 144/7/3
f 146/2/3 134/2/3 133/2/3
f 146/3/3 140/3/3 145/3/3
f 146/3/3 133/3/3 140/3/3
f 147/2/3 134/2/3 146/2/3
f 149/5/3 142/5/3 141/5/3
f 150/6/3 143/6/3 142/6/3
f 150/5/3 142/5/3 149/5/3
f 151/7/3 144/7/3 143/7/3
f 151/6/3 143/6/3 150/6/3
f 152/7/3 144/7/3 151/7/3
f 153/2/3 146/2/3 145/2/3
f 154/2/3 146/2/3 153/2/3
f 156/5/3 149/5/3 148/5/3
f 157/6/3 150/6/3 149/6/3
f 157/5/3 149/5/3 156/5/3
f 158/7/3 151/7/3 150/7/3
f 158/6/3 150/6/3 157/6/3
f 159/7/3 151/7/3 158/7/3
f 161/5/3 156/5/3 155/5/3
f 162/6/3 157/6/3 156/6/3
f 162/5/3 156/5/3 161/5/3
f 163/7/3 158/7/3 157/7/3
f 163/6/3 157/6/3 162/6/3
f 164/7/3 158/7/3 163/7/3
f 166/5/3 161/5/3 160/5/3
f 167/6/3 162/6/3 161/6/3
f 167/5/3 161/5/3 166/5/3
f 168/7/3 163/7/3 162/7/3
f 168/6/3 162/6/3 167/6/3
f 169/7/3 163/7/3 168/7/3
f 171/5/3 166/5/3 165/5/3
f 172/6/3 167/6/3 166/6/3
f 172/5/3 166/5/3 171/5/3
f 173/7/3 168/7/3 167/7/3
f 173/6/3 167/6/3 172/6/3
f 174/7/3 168/7/3 173/7/3
f 175/5/3 171/5/3 170/5/3
f 176/6/3 172/6/3 171/6/3
f 176/5/3 171/5/3 175/5/3
f 177/7/3 173/7/3 172/7/3
f 177/6/3 172/6/3 176/6/3
f 178/7/3 173/7/3 177/7/3
f 179/6/3 176/6/3 175/6/3
f 180/7/3 177/7/3 176/7/3
f 180/6/3 176/6/3 179/6/3
f 181/7/3 177/7/3 180/7/3
f 182/2/4 183/2/4 185/2/4
f 185/2/4 183/2/4 186/2/4
f 184/2/4 185/2/4 189/2/4
f 185/1/4 186/1/4 190/1/4
f 189/2/4 185/2/4 190/2/4
f 190/1/4 186/1/4 191/1/4
f 188/2/4 189/2/4 193/2/4
f 189/1/4 190/1/4 194/1/4
f 193/2/4 189/2/4 194/2/4
f 190/3/4 191/3/4 195/3/4
f 194/1/4 190/1/4 195/1/4
f 191/1/4 186/1/4 196/1/4
f 195/3/4 191/3/4 196/3/4
f 186/2/4 187/2/4 197/2/4
f 196/1/4 186/1/4 197/1/4
f 197/2/4 187/2/4 198/2/4
f 195/3/4 196/3/4 200/3/4
f 194/3/4 195/3/4 200/3/4
f 193/1/4 194/1/4 200/1/4
f 196/3/4 197/3/4 200/3/4
f 200/3/4 197/3/4 201/3/4
f 201/3/4 197/3/4 202/3/4
f 197/5/4 198/5/4 203/5/4
f 202/3/4 197/3/4 203/3/4
f 198/6/4 199/6/4 204/6/4
f 203/5/4 198/5/4 204/5/4
f 204/6/4 199/6/4 205/6/4
f 192/2/4 193/2/4 206/2/4
f 193/1/4 200/1/4 207/1/4
f 206/2/4 193/2/4 207/2/4
f 200/1/4 201/1/4 207/1/4
f 201/3/4 202/3/4 208/3/4
f 207/1/4 201/1/4 208/1/4
f 202/4/4 203/4/4 209/4/4
f 208/3/4 202/3/4 209/3/4
f 203/3/4 204/3/4 210/3/4
f 209/4/4 203/4/4 210/4/4
f 204/7/4 205/7/4 211/7/4
f 210/3/4 204/3/4 211/3/4
f 211/7/4 205/7/4 212/7/4
f 207/2/4 208/2/4 214/2/4
f 214/2/4 208/2/4 215/2/4
f 208/5/4 209/5/4 216/5/4
f 215/2/4 208/2/4 216/2/4
f 209/3/4 210/3/4 217/3/4
f 216/5/4 209/5/4 217/5/4
f 210/4/4 211/4/4 218/4/4
f 217/3/4 210/3/4 218/3/4
f 211/3/4 212/3/4 219/3/4
f 218/4/4 211/4/4 219/4/4
f 215/5/4 216/5/4 221/5/4
f 216/6/4 217/6/4 222/6/4
f 221/5/4 216/5/4 222/5/4
f 217/7/4 218/7/4 223/7/4
f 222/6/4 217/6/4 223/6/4
f 218/3/4 219/3/4 224/3/4
f 223/7/4 218/7/4 224/7/4
f 212/2/4 213/2/4 225/2/4
f 224/3/4 219/3/4 225/3/4
f 219/3/4 212/3/4 225/3/4
f 225/2/4 213/2/4 226/2/4
f 220/5/4 221/5/4 228/5/4
f 221/6/4 222/6/4 229/6/4
f 228/5/4 221/5/4 229/5/4
f 222/7/4 223/7/4 230/7/4
f 229/6/4 222/6/4 230/6/4
f 230/7/4 223/7/4 231/7/4
f 224/2/4 225/2/4 232/2/4
f 232/2/4 225/2/4 233/2/4
f 227/5/4 228/5/4 235/5/4
f 228/6/4 229/6/4 236/6/4
f 235/5/4 228/5/4 236/5/4
f 229/7/4 230/7/4 237/7/4
f 236/6/4 229/6/4 237/6/4
f 237/7/4 230/7/4 238/7/4
f 234/5/4 235/5/4 240/5/4
f 235/6/4 236/6/4 241/6/4
f 240/5/4 235/5/4 241/5/4
f 236/7/4 237/7/4 242/7/4
f 241/6/4 236/6/4 242/6/4
f 242/7/4 237/7/4 243/7/4
f 239/5/4 240/5/4 245/5/4
f 240/6/4 241/6/4 246/6/4
f 245/5/4 240/5/4 246/5/4
f 241/7/4 242/7/4 247/7/4
f 246/6/4 241/6/4 247/6/4
f 247/7/4 242/7/4 248/7/4
f 244/5/4 245/5/4 250/5/4
f 245/6/4 246/6/4 251/6/4
f 250/5/4 245/5/4 251/5/4
f 246/7/4 247/7/4 252/7/4
f 251/6/4 246/6/4 252/6/4
f 252/7/4 247/7/4 253/7/4
f 249/5/4 250/5/4 254/5/4
f 250/6/4 251/6/4 255/6/4
f 254/5/4 250/5/4 255/5/4
f 251/7/4 252/7/4 256/7/4
f 255/6/4 251/6/4 256/6/4
f 256/7/4 252/7/4 257/7/4
f 254/6/4 255/6/4 258/6/4
f 255/7/4 256/7/4 259/7/4
f 258/6/4 255/6/4 259/6/4
f 259/7/4 256/7/4 260/7/4
f 264/5/5 262/5/5 261/5/5
f 265/6/5 263/6/5 262/6/5
f 265/5/5 262/5/5 264/5/5
f 266/6/5 263/6/5 265/6/5
f 269/5/5 268/5/5 267/5/5
f 270/5/5 268/5/5 269/5/5
f 273/5/5 272/5/5 271/5/5
f 274/5/5 272/5/5 273/5/5
f 277/5/5 276/5/5 275/5/5
f 278/5/5 276/5/5 277/5/5
f 283/2/5 280/2/5 279/2/5
f 284/2/5 280/2/5 283/2/5
f 285/5/5 282/5/5 281/5/5
f 286/5/5 282/5/5 285/5/5
f 293/2/5 288/2/5 287/2/5
f 294/2/5 288/2/5 293/2/5
f 295/2/5 290/2/5 289/2/5
f 296/2/5 290/2/5 295/2/5
f 297/5/5 292/5/5 291/5/5
f 298/5/5 292/5/5 297/5/5
f 303/2/5 300/2/5 299/2/5
f 304/2/5 300/2/5 303/2/5
f 305/5/5 302/5/5 301/5/5
f 306/5/5 302/5/5 305/5/5
f 309/2/5 308/2/5 307/2/5
f 310/2/5 308/2/5 309/2/5
f 313/2/5 312/2/5 311/2/5
f 314/2/5 312/2/5 313/2/5
f 315/7/6 316/7/6 317/7/6
f 317/7/6 316/7/6 318/7/6
f 319/7/6 320/7/6 321/7/6
f 321/7/6 320/7/6 322/7/6
f 323/7/6 324/7/6 325/7/6
f 325/7/6 324/7/6 326/7/6
f 327/7/6 328/7/6 329/7/6
f 329/7/6 328/7/6 330/7/6
f 331/7/6 332/7/6 333/7/6
f 333/7/6 332/7/6 334/7/6
f 335/7/6 336/7/6 337/7/6
f 337/7/6 336/7/6 338/7/6
f 339/7/6 340/7/6 341/7/6
f 341/7/6 340/7/6 342/7/6
f 343/2/6 344/2/6 345/2/6
f 345/2/6 344/2/6 346/2/6
f 347/2/6 348/2/6 349/2/6
f 349/2/6 348/2/6 350/2/6
f 351/6/6 352/6/6 356/6/6
f 352/7/6 353/7/6 357/7/6
f 356/6/6 352/6/6 357/6/6
f 357/7/6 353/7/6 358/7/6
f 354/2/6 355/2/6 359/2/6
f 359/2/6 355/2/6 360/2/6
f 361/2/6 362/2/6 363/2/6
f 363/2/6 362/2/6 364/2/6
