# MagicaVoxel @ Ephtracy

# group
o 

# material
mtllib Iron Axe.mtl
usemtl palette

# normals
vn -1 0 0
vn 1 0 0
vn 0 0 1
vn 0 0 -1
vn 0 -1 0
vn 0 1 0

# texcoords
vt 0.876953 0.5
vt 0.880859 0.5
vt 0.884766 0.5
vt 0.888672 0.5
vt 0.892578 0.5
vt 0.970703 0.5
vt 0.974609 0.5
vt 0.978516 0.5

# verts
v -0.7 0.3 0.1
v -0.7 0.3 0
v -0.7 0.5 0.1
v -0.7 0.5 0
v -0.6 0.2 0.1
v -0.6 0.2 0
v -0.6 0.3 0.1
v -0.6 0.3 0
v -0.6 0.5 0.1
v -0.6 0.5 0
v -0.6 0.6 0.1
v -0.6 0.6 0
v -0.5 0.1 0.1
v -0.5 0.1 0
v -0.5 0.2 0.1
v -0.5 0.2 0
v -0.4 0 0.1
v -0.4 0 0
v -0.4 0.1 0.1
v -0.4 0.1 0
v -0.4 0.6 0.1
v -0.4 0.6 0
v -0.4 0.7 0.1
v -0.4 0.7 0
v -0.2 0.7 0.1
v -0.2 0.7 0
v -0.2 0.8 0.1
v -0.2 0.8 0
v 0 0.1 0.1
v 0 0.1 0
v 0 0.2 0.1
v 0 0.2 0
v 0.1 0 0.1
v 0.1 0 0
v 0.1 0.1 0.1
v 0.1 0.1 0
v 0.2 -0.1 0.1
v 0.2 -0.1 0
v 0.2 0 0.1
v 0.2 0 0
v 0.3 -0.2 0.1
v 0.3 -0.2 0
v 0.3 -0.1 0.1
v 0.3 -0.1 0
v 0.4 -0.3 0.1
v 0.4 -0.3 0
v 0.4 -0.2 0.1
v 0.4 -0.2 0
v 0.5 -0.4 0.1
v 0.5 -0.4 0
v 0.5 -0.3 0.1
v 0.5 -0.3 0
v -0.2 0 0.1
v -0.2 0 0
v -0.2 0.1 0.1
v -0.2 0.1 0
v -0.1 0.1 0.1
v -0.1 0.1 0
v -0.1 0.2 0.1
v -0.1 0.2 0
v 0 0.4 0.1
v 0 0.4 0
v 0 0.5 0.1
v 0 0.5 0
v 0 0.7 0.1
v 0 0.7 0
v 0 0.8 0.1
v 0 0.8 0
v 0.1 0.3 0.1
v 0.1 0.3 0
v 0.1 0.4 0.1
v 0.1 0.4 0
v 0.1 0.5 0.1
v 0.1 0.5 0
v 0.1 0.7 0.1
v 0.1 0.7 0
v 0.2 0.2 0.1
v 0.2 0.2 0
v 0.2 0.3 0.1
v 0.2 0.3 0
v 0.3 0.1 0.1
v 0.3 0.1 0
v 0.3 0.2 0.1
v 0.3 0.2 0
v 0.4 0 0.1
v 0.4 0 0
v 0.4 0.1 0.1
v 0.4 0.1 0
v 0.5 -0.1 0.1
v 0.5 -0.1 0
v 0.5 0 0.1
v 0.5 0 0
v 0.6 -0.2 0.1
v 0.6 -0.2 0
v 0.6 -0.1 0.1
v 0.6 -0.1 0
v 0.7 -0.4 0.1
v 0.7 -0.4 0
v 0.7 -0.3 0.1
v 0.7 -0.3 0
v 0.7 -0.2 0.1
v 0.7 -0.2 0
v -0.7 0.3 0.1
v -0.7 0.5 0.1
v -0.6 0.2 0.1
v -0.6 0.3 0.1
v -0.6 0.5 0.1
v -0.6 0.6 0.1
v -0.5 0.1 0.1
v -0.5 0.2 0.1
v -0.5 0.3 0.1
v -0.5 0.4 0.1
v -0.4 0 0.1
v -0.4 0.1 0.1
v -0.4 0.2 0.1
v -0.4 0.3 0.1
v -0.4 0.4 0.1
v -0.4 0.5 0.1
v -0.4 0.6 0.1
v -0.4 0.7 0.1
v -0.3 0.2 0.1
v -0.3 0.3 0.1
v -0.3 0.4 0.1
v -0.3 0.5 0.1
v -0.3 0.6 0.1
v -0.3 0.7 0.1
v -0.2 0 0.1
v -0.2 0.1 0.1
v -0.2 0.3 0.1
v -0.2 0.4 0.1
v -0.2 0.5 0.1
v -0.2 0.6 0.1
v -0.2 0.7 0.1
v -0.2 0.8 0.1
v -0.1 0.1 0.1
v -0.1 0.2 0.1
v -0.1 0.3 0.1
v -0.1 0.4 0.1
v -0.1 0.5 0.1
v -0.1 0.6 0.1
v 0 0.1 0.1
v 0 0.2 0.1
v 0 0.3 0.1
v 0 0.4 0.1
v 0 0.5 0.1
v 0 0.7 0.1
v 0 0.8 0.1
v 0.1 0 0.1
v 0.1 0.1 0.1
v 0.1 0.2 0.1
v 0.1 0.3 0.1
v 0.1 0.4 0.1
v 0.1 0.5 0.1
v 0.1 0.7 0.1
v 0.2 -0.1 0.1
v 0.2 0 0.1
v 0.2 0.1 0.1
v 0.2 0.2 0.1
v 0.2 0.3 0.1
v 0.3 -0.2 0.1
v 0.3 -0.1 0.1
v 0.3 0 0.1
v 0.3 0.1 0.1
v 0.3 0.2 0.1
v 0.4 -0.3 0.1
v 0.4 -0.2 0.1
v 0.4 -0.1 0.1
v 0.4 0 0.1
v 0.4 0.1 0.1
v 0.5 -0.4 0.1
v 0.5 -0.3 0.1
v 0.5 -0.2 0.1
v 0.5 -0.1 0.1
v 0.5 0 0.1
v 0.6 -0.4 0.1
v 0.6 -0.3 0.1
v 0.6 -0.2 0.1
v 0.6 -0.1 0.1
v 0.7 -0.4 0.1
v 0.7 -0.3 0.1
v 0.7 -0.2 0.1
v -0.7 0.3 0
v -0.7 0.5 0
v -0.6 0.2 0
v -0.6 0.3 0
v -0.6 0.5 0
v -0.6 0.6 0
v -0.5 0.1 0
v -0.5 0.2 0
v -0.5 0.3 0
v -0.5 0.4 0
v -0.4 0 0
v -0.4 0.1 0
v -0.4 0.2 0
v -0.4 0.3 0
v -0.4 0.4 0
v -0.4 0.5 0
v -0.4 0.6 0
v -0.4 0.7 0
v -0.3 0.2 0
v -0.3 0.3 0
v -0.3 0.4 0
v -0.3 0.5 0
v -0.3 0.6 0
v -0.3 0.7 0
v -0.2 0 0
v -0.2 0.1 0
v -0.2 0.3 0
v -0.2 0.4 0
v -0.2 0.5 0
v -0.2 0.6 0
v -0.2 0.7 0
v -0.2 0.8 0
v -0.1 0.1 0
v -0.1 0.2 0
v -0.1 0.3 0
v -0.1 0.4 0
v -0.1 0.5 0
v -0.1 0.6 0
v 0 0.1 0
v 0 0.2 0
v 0 0.3 0
v 0 0.4 0
v 0 0.5 0
v 0 0.7 0
v 0 0.8 0
v 0.1 0 0
v 0.1 0.1 0
v 0.1 0.2 0
v 0.1 0.3 0
v 0.1 0.4 0
v 0.1 0.5 0
v 0.1 0.7 0
v 0.2 -0.1 0
v 0.2 0 0
v 0.2 0.1 0
v 0.2 0.2 0
v 0.2 0.3 0
v 0.3 -0.2 0
v 0.3 -0.1 0
v 0.3 0 0
v 0.3 0.1 0
v 0.3 0.2 0
v 0.4 -0.3 0
v 0.4 -0.2 0
v 0.4 -0.1 0
v 0.4 0 0
v 0.4 0.1 0
v 0.5 -0.4 0
v 0.5 -0.3 0
v 0.5 -0.2 0
v 0.5 -0.1 0
v 0.5 0 0
v 0.6 -0.4 0
v 0.6 -0.3 0
v 0.6 -0.2 0
v 0.6 -0.1 0
v 0.7 -0.4 0
v 0.7 -0.3 0
v 0.7 -0.2 0
v 0.5 -0.4 0.1
v 0.6 -0.4 0.1
v 0.7 -0.4 0.1
v 0.5 -0.4 0
v 0.6 -0.4 0
v 0.7 -0.4 0
v 0.4 -0.3 0.1
v 0.5 -0.3 0.1
v 0.4 -0.3 0
v 0.5 -0.3 0
v 0.3 -0.2 0.1
v 0.4 -0.2 0.1
v 0.3 -0.2 0
v 0.4 -0.2 0
v 0.2 -0.1 0.1
v 0.3 -0.1 0.1
v 0.2 -0.1 0
v 0.3 -0.1 0
v -0.4 0 0.1
v -0.2 0 0.1
v 0.1 0 0.1
v 0.2 0 0.1
v -0.4 0 0
v -0.2 0 0
v 0.1 0 0
v 0.2 0 0
v -0.5 0.1 0.1
v -0.4 0.1 0.1
v -0.2 0.1 0.1
v -0.1 0.1 0.1
v 0 0.1 0.1
v 0.1 0.1 0.1
v -0.5 0.1 0
v -0.4 0.1 0
v -0.2 0.1 0
v -0.1 0.1 0
v 0 0.1 0
v 0.1 0.1 0
v -0.6 0.2 0.1
v -0.5 0.2 0.1
v -0.1 0.2 0.1
v 0 0.2 0.1
v -0.6 0.2 0
v -0.5 0.2 0
v -0.1 0.2 0
v 0 0.2 0
v -0.7 0.3 0.1
v -0.6 0.3 0.1
v -0.7 0.3 0
v -0.6 0.3 0
v 0 0.5 0.1
v 0.1 0.5 0.1
v 0 0.5 0
v 0.1 0.5 0
v 0.6 -0.2 0.1
v 0.7 -0.2 0.1
v 0.6 -0.2 0
v 0.7 -0.2 0
v 0.5 -0.1 0.1
v 0.6 -0.1 0.1
v 0.5 -0.1 0
v 0.6 -0.1 0
v 0.4 0 0.1
v 0.5 0 0.1
v 0.4 0 0
v 0.5 0 0
v 0.3 0.1 0.1
v 0.4 0.1 0.1
v 0.3 0.1 0
v 0.4 0.1 0
v 0.2 0.2 0.1
v 0.3 0.2 0.1
v 0.2 0.2 0
v 0.3 0.2 0
v 0.1 0.3 0.1
v 0.2 0.3 0.1
v 0.1 0.3 0
v 0.2 0.3 0
v 0 0.4 0.1
v 0.1 0.4 0.1
v 0 0.4 0
v 0.1 0.4 0
v -0.7 0.5 0.1
v -0.6 0.5 0.1
v -0.7 0.5 0
v -0.6 0.5 0
v -0.6 0.6 0.1
v -0.4 0.6 0.1
v -0.6 0.6 0
v -0.4 0.6 0
v -0.4 0.7 0.1
v -0.3 0.7 0.1
v -0.2 0.7 0.1
v 0 0.7 0.1
v 0.1 0.7 0.1
v -0.4 0.7 0
v -0.3 0.7 0
v -0.2 0.7 0
v 0 0.7 0
v 0.1 0.7 0
v -0.2 0.8 0.1
v 0 0.8 0.1
v -0.2 0.8 0
v 0 0.8 0

# faces
f 3/2/1 2/2/1 1/2/1
f 4/2/1 2/2/1 3/2/1
f 7/2/1 6/2/1 5/2/1
f 8/2/1 6/2/1 7/2/1
f 11/2/1 10/2/1 9/2/1
f 12/2/1 10/2/1 11/2/1
f 15/2/1 14/2/1 13/2/1
f 16/2/1 14/2/1 15/2/1
f 19/2/1 18/2/1 17/2/1
f 20/2/1 18/2/1 19/2/1
f 23/7/1 22/7/1 21/7/1
f 24/7/1 22/7/1 23/7/1
f 27/2/1 26/2/1 25/2/1
f 28/2/1 26/2/1 27/2/1
f 31/6/1 30/6/1 29/6/1
f 32/6/1 30/6/1 31/6/1
f 35/6/1 34/6/1 33/6/1
f 36/6/1 34/6/1 35/6/1
f 39/6/1 38/6/1 37/6/1
f 40/6/1 38/6/1 39/6/1
f 43/6/1 42/6/1 41/6/1
f 44/6/1 42/6/1 43/6/1
f 47/6/1 46/6/1 45/6/1
f 48/6/1 46/6/1 47/6/1
f 51/6/1 50/6/1 49/6/1
f 52/6/1 50/6/1 51/6/1
f 53/2/2 54/2/2 55/2/2
f 55/2/2 54/2/2 56/2/2
f 57/2/2 58/2/2 59/2/2
f 59/2/2 58/2/2 60/2/2
f 61/8/2 62/8/2 63/8/2
f 63/8/2 62/8/2 64/8/2
f 65/2/2 66/2/2 67/2/2
f 67/2/2 66/2/2 68/2/2
f 69/8/2 70/8/2 71/8/2
f 71/8/2 70/8/2 72/8/2
f 73/2/2 74/2/2 75/2/2
f 75/2/2 74/2/2 76/2/2
f 77/8/2 78/8/2 79/8/2
f 79/8/2 78/8/2 80/8/2
f 81/8/2 82/8/2 83/8/2
f 83/8/2 82/8/2 84/8/2
f 85/8/2 86/8/2 87/8/2
f 87/8/2 86/8/2 88/8/2
f 89/8/2 90/8/2 91/8/2
f 91/8/2 90/8/2 92/8/2
f 93/8/2 94/8/2 95/8/2
f 95/8/2 94/8/2 96/8/2
f 97/7/2 98/7/2 99/7/2
f 99/7/2 98/7/2 100/7/2
f 99/8/2 100/8/2 101/8/2
f 101/8/2 100/8/2 102/8/2
f 106/2/3 104/2/3 103/2/3
f 107/2/3 104/2/3 106/2/3
f 110/2/3 106/2/3 105/2/3
f 111/1/3 107/1/3 106/1/3
f 111/2/3 106/2/3 110/2/3
f 112/1/3 107/1/3 111/1/3
f 114/2/3 110/2/3 109/2/3
f 115/1/3 111/1/3 110/1/3
f 115/2/3 110/2/3 114/2/3
f 116/3/3 112/3/3 111/3/3
f 116/1/3 111/1/3 115/1/3
f 117/1/3 107/1/3 112/1/3
f 117/3/3 112/3/3 116/3/3
f 118/2/3 108/2/3 107/2/3
f 118/1/3 107/1/3 117/1/3
f 119/2/3 108/2/3 118/2/3
f 121/3/3 117/3/3 116/3/3
f 121/3/3 116/3/3 115/3/3
f 121/1/3 115/1/3 114/1/3
f 121/3/3 118/3/3 117/3/3
f 122/3/3 118/3/3 121/3/3
f 123/3/3 118/3/3 122/3/3
f 124/6/3 119/6/3 118/6/3
f 124/3/3 118/3/3 123/3/3
f 125/7/3 120/7/3 119/7/3
f 125/6/3 119/6/3 124/6/3
f 126/7/3 120/7/3 125/7/3
f 127/2/3 114/2/3 113/2/3
f 128/1/3 121/1/3 114/1/3
f 128/2/3 114/2/3 127/2/3
f 128/1/3 122/1/3 121/1/3
f 129/3/3 123/3/3 122/3/3
f 129/1/3 122/1/3 128/1/3
f 130/4/3 124/4/3 123/4/3
f 130/3/3 123/3/3 129/3/3
f 131/5/3 125/5/3 124/5/3
f 131/4/3 124/4/3 130/4/3
f 132/8/3 126/8/3 125/8/3
f 132/5/3 125/5/3 131/5/3
f 133/8/3 126/8/3 132/8/3
f 135/2/3 129/2/3 128/2/3
f 136/2/3 129/2/3 135/2/3
f 137/6/3 130/6/3 129/6/3
f 137/2/3 129/2/3 136/2/3
f 138/5/3 131/5/3 130/5/3
f 138/6/3 130/6/3 137/6/3
f 139/4/3 132/4/3 131/4/3
f 139/5/3 131/5/3 138/5/3
f 140/5/3 133/5/3 132/5/3
f 140/4/3 132/4/3 139/4/3
f 142/6/3 137/6/3 136/6/3
f 143/7/3 138/7/3 137/7/3
f 143/6/3 137/6/3 142/6/3
f 144/8/3 139/8/3 138/8/3
f 144/7/3 138/7/3 143/7/3
f 145/5/3 140/5/3 139/5/3
f 145/8/3 139/8/3 144/8/3
f 146/2/3 134/2/3 133/2/3
f 146/5/3 140/5/3 145/5/3
f 146/5/3 133/5/3 140/5/3
f 147/2/3 134/2/3 146/2/3
f 149/6/3 142/6/3 141/6/3
f 150/7/3 143/7/3 142/7/3
f 150/6/3 142/6/3 149/6/3
f 151/8/3 144/8/3 143/8/3
f 151/7/3 143/7/3 150/7/3
f 152/8/3 144/8/3 151/8/3
f 153/2/3 146/2/3 145/2/3
f 154/2/3 146/2/3 153/2/3
f 156/6/3 149/6/3 148/6/3
f 157/7/3 150/7/3 149/7/3
f 157/6/3 149/6/3 156/6/3
f 158/8/3 151/8/3 150/8/3
f 158/7/3 150/7/3 157/7/3
f 159/8/3 151/8/3 158/8/3
f 161/6/3 156/6/3 155/6/3
f 162/7/3 157/7/3 156/7/3
f 162/6/3 156/6/3 161/6/3
f 163/8/3 158/8/3 157/8/3
f 163/7/3 157/7/3 162/7/3
f 164/8/3 158/8/3 163/8/3
f 166/6/3 161/6/3 160/6/3
f 167/7/3 162/7/3 161/7/3
f 167/6/3 161/6/3 166/6/3
f 168/8/3 163/8/3 162/8/3
f 168/7/3 162/7/3 167/7/3
f 169/8/3 163/8/3 168/8/3
f 171/6/3 166/6/3 165/6/3
f 172/7/3 167/7/3 166/7/3
f 172/6/3 166/6/3 171/6/3
f 173/8/3 168/8/3 167/8/3
f 173/7/3 167/7/3 172/7/3
f 174/8/3 168/8/3 173/8/3
f 175/6/3 171/6/3 170/6/3
f 176/7/3 172/7/3 171/7/3
f 176/6/3 171/6/3 175/6/3
f 177/8/3 173/8/3 172/8/3
f 177/7/3 172/7/3 176/7/3
f 178/8/3 173/8/3 177/8/3
f 179/7/3 176/7/3 175/7/3
f 180/8/3 177/8/3 176/8/3
f 180/7/3 176/7/3 179/7/3
f 181/8/3 177/8/3 180/8/3
f 182/2/4 183/2/4 185/2/4
f 185/2/4 183/2/4 186/2/4
f 184/2/4 185/2/4 189/2/4
f 185/1/4 186/1/4 190/1/4
f 189/2/4 185/2/4 190/2/4
f 190/1/4 186/1/4 191/1/4
f 188/2/4 189/2/4 193/2/4
f 189/1/4 190/1/4 194/1/4
f 193/2/4 189/2/4 194/2/4
f 190/3/4 191/3/4 195/3/4
f 194/1/4 190/1/4 195/1/4
f 191/1/4 186/1/4 196/1/4
f 195/3/4 191/3/4 196/3/4
f 186/2/4 187/2/4 197/2/4
f 196/1/4 186/1/4 197/1/4
f 197/2/4 187/2/4 198/2/4
f 195/3/4 196/3/4 200/3/4
f 194/3/4 195/3/4 200/3/4
f 193/1/4 194/1/4 200/1/4
f 196/3/4 197/3/4 200/3/4
f 200/3/4 197/3/4 201/3/4
f 201/3/4 197/3/4 202/3/4
f 197/6/4 198/6/4 203/6/4
f 202/3/4 197/3/4 203/3/4
f 198/7/4 199/7/4 204/7/4
f 203/6/4 198/6/4 204/6/4
f 204/7/4 199/7/4 205/7/4
f 192/2/4 193/2/4 206/2/4
f 193/1/4 200/1/4 207/1/4
f 206/2/4 193/2/4 207/2/4
f 200/1/4 201/1/4 207/1/4
f 201/3/4 202/3/4 208/3/4
f 207/1/4 201/1/4 208/1/4
f 202/4/4 203/4/4 209/4/4
f 208/3/4 202/3/4 209/3/4
f 203/5/4 204/5/4 210/5/4
f 209/4/4 203/4/4 210/4/4
f 204/8/4 205/8/4 211/8/4
f 210/5/4 204/5/4 211/5/4
f 211/8/4 205/8/4 212/8/4
f 207/2/4 208/2/4 214/2/4
f 214/2/4 208/2/4 215/2/4
f 208/6/4 209/6/4 216/6/4
f 215/2/4 208/2/4 216/2/4
f 209/5/4 210/5/4 217/5/4
f 216/6/4 209/6/4 217/6/4
f 210/4/4 211/4/4 218/4/4
f 217/5/4 210/5/4 218/5/4
f 211/5/4 212/5/4 219/5/4
f 218/4/4 211/4/4 219/4/4
f 215/6/4 216/6/4 221/6/4
f 216/7/4 217/7/4 222/7/4
f 221/6/4 216/6/4 222/6/4
f 217/8/4 218/8/4 223/8/4
f 222/7/4 217/7/4 223/7/4
f 218/5/4 219/5/4 224/5/4
f 223/8/4 218/8/4 224/8/4
f 212/2/4 213/2/4 225/2/4
f 224/5/4 219/5/4 225/5/4
f 219/5/4 212/5/4 225/5/4
f 225/2/4 213/2/4 226/2/4
f 220/6/4 221/6/4 228/6/4
f 221/7/4 222/7/4 229/7/4
f 228/6/4 221/6/4 229/6/4
f 222/8/4 223/8/4 230/8/4
f 229/7/4 222/7/4 230/7/4
f 230/8/4 223/8/4 231/8/4
f 224/2/4 225/2/4 232/2/4
f 232/2/4 225/2/4 233/2/4
f 227/6/4 228/6/4 235/6/4
f 228/7/4 229/7/4 236/7/4
f 235/6/4 228/6/4 236/6/4
f 229/8/4 230/8/4 237/8/4
f 236/7/4 229/7/4 237/7/4
f 237/8/4 230/8/4 238/8/4
f 234/6/4 235/6/4 240/6/4
f 235/7/4 236/7/4 241/7/4
f 240/6/4 235/6/4 241/6/4
f 236/8/4 237/8/4 242/8/4
f 241/7/4 236/7/4 242/7/4
f 242/8/4 237/8/4 243/8/4
f 239/6/4 240/6/4 245/6/4
f 240/7/4 241/7/4 246/7/4
f 245/6/4 240/6/4 246/6/4
f 241/8/4 242/8/4 247/8/4
f 246/7/4 241/7/4 247/7/4
f 247/8/4 242/8/4 248/8/4
f 244/6/4 245/6/4 250/6/4
f 245/7/4 246/7/4 251/7/4
f 250/6/4 245/6/4 251/6/4
f 246/8/4 247/8/4 252/8/4
f 251/7/4 246/7/4 252/7/4
f 252/8/4 247/8/4 253/8/4
f 249/6/4 250/6/4 254/6/4
f 250/7/4 251/7/4 255/7/4
f 254/6/4 250/6/4 255/6/4
f 251/8/4 252/8/4 256/8/4
f 255/7/4 251/7/4 256/7/4
f 256/8/4 252/8/4 257/8/4
f 254/7/4 255/7/4 258/7/4
f 255/8/4 256/8/4 259/8/4
f 258/7/4 255/7/4 259/7/4
f 259/8/4 256/8/4 260/8/4
f 264/6/5 262/6/5 261/6/5
f 265/7/5 263/7/5 262/7/5
f 265/6/5 262/6/5 264/6/5
f 266/7/5 263/7/5 265/7/5
f 269/6/5 268/6/5 267/6/5
f 270/6/5 268/6/5 269/6/5
f 273/6/5 272/6/5 271/6/5
f 274/6/5 272/6/5 273/6/5
f 277/6/5 276/6/5 275/6/5
f 278/6/5 276/6/5 277/6/5
f 283/2/5 280/2/5 279/2/5
f 284/2/5 280/2/5 283/2/5
f 285/6/5 282/6/5 281/6/5
f 286/6/5 282/6/5 285/6/5
f 293/2/5 288/2/5 287/2/5
f 294/2/5 288/2/5 293/2/5
f 295/2/5 290/2/5 289/2/5
f 296/2/5 290/2/5 295/2/5
f 297/6/5 292/6/5 291/6/5
f 298/6/5 292/6/5 297/6/5
f 303/2/5 300/2/5 299/2/5
f 304/2/5 300/2/5 303/2/5
f 305/6/5 302/6/5 301/6/5
f 306/6/5 302/6/5 305/6/5
f 309/2/5 308/2/5 307/2/5
f 310/2/5 308/2/5 309/2/5
f 313/2/5 312/2/5 311/2/5
f 314/2/5 312/2/5 313/2/5
f 315/8/6 316/8/6 317/8/6
f 317/8/6 316/8/6 318/8/6
f 319/8/6 320/8/6 321/8/6
f 321/8/6 320/8/6 322/8/6
f 323/8/6 324/8/6 325/8/6
f 325/8/6 324/8/6 326/8/6
f 327/8/6 328/8/6 329/8/6
f 329/8/6 328/8/6 330/8/6
f 331/8/6 332/8/6 333/8/6
f 333/8/6 332/8/6 334/8/6
f 335/8/6 336/8/6 337/8/6
f 337/8/6 336/8/6 338/8/6
f 339/8/6 340/8/6 341/8/6
f 341/8/6 340/8/6 342/8/6
f 343/2/6 344/2/6 345/2/6
f 345/2/6 344/2/6 346/2/6
f 347/2/6 348/2/6 349/2/6
f 349/2/6 348/2/6 350/2/6
f 351/7/6 352/7/6 356/7/6
f 352/8/6 353/8/6 357/8/6
f 356/7/6 352/7/6 357/7/6
f 357/8/6 353/8/6 358/8/6
f 354/2/6 355/2/6 359/2/6
f 359/2/6 355/2/6 360/2/6
f 361/2/6 362/2/6 363/2/6
f 363/2/6 362/2/6 364/2/6
