# MagicaVoxel @ Ephtracy

# group
o 

# material
mtllib Steve-0.mtl
usemtl palette

# normals
vn -1 0 0
vn 1 0 0
vn 0 0 1
vn 0 0 -1
vn 0 -1 0
vn 0 1 0

# texcoords
vt 0.912109 0.5
vt 0.916016 0.5
vt 0.919922 0.5
vt 0.970703 0.5

# verts
v -0.2 0.1 0.4
v -0.2 0.1 0
v -0.2 0.3 0.4
v -0.2 0.3 0
v -0.2 1.3 0.4
v -0.2 1.3 0
v 0.2 0.1 0.4
v 0.2 0.1 0
v 0.2 0.3 0.4
v 0.2 0.3 0
v 0.2 0.7 0.3
v 0.2 0.7 0.1
v 0.2 0.8 0.3
v 0.2 0.8 0.1
v 0.2 1.3 0.4
v 0.2 1.3 0
v -0.2 0.1 0.4
v -0.2 0.3 0.4
v -0.2 1.3 0.4
v 0.2 0.1 0.4
v 0.2 0.3 0.4
v 0.2 1.3 0.4
v -0.2 0.1 0
v -0.2 0.3 0
v -0.2 1.3 0
v 0.2 0.1 0
v 0.2 0.3 0
v 0.2 1.3 0
v -0.2 0.1 0.4
v 0.2 0.1 0.4
v -0.2 0.1 0
v 0.2 0.1 0
v -0.2 1.3 0.4
v 0.2 1.3 0.4
v 0 1.3 0.3
v 0.1 1.3 0.3
v -0.1 1.3 0.2
v 0 1.3 0.2
v -0.1 1.3 0.1
v 0.1 1.3 0.1
v -0.2 1.3 0
v 0.2 1.3 0

# faces
f 3/2/1 2/2/1 1/2/1
f 4/2/1 2/2/1 3/2/1
f 5/1/1 4/1/1 3/1/1
f 6/1/1 4/1/1 5/1/1
f 7/2/2 8/2/2 9/2/2
f 9/2/2 8/2/2 10/2/2
f 9/1/2 10/1/2 11/1/2
f 11/1/2 10/1/2 12/1/2
f 9/1/2 11/1/2 13/1/2
f 11/3/2 12/3/2 13/3/2
f 12/1/2 10/1/2 14/1/2
f 13/3/2 12/3/2 14/3/2
f 9/1/2 13/1/2 15/1/2
f 13/1/2 14/1/2 15/1/2
f 14/1/2 10/1/2 16/1/2
f 15/1/2 14/1/2 16/1/2
f 20/2/3 18/2/3 17/2/3
f 21/1/3 19/1/3 18/1/3
f 21/2/3 18/2/3 20/2/3
f 22/1/3 19/1/3 21/1/3
f 23/2/4 24/2/4 26/2/4
f 24/1/4 25/1/4 27/1/4
f 26/2/4 24/2/4 27/2/4
f 27/1/4 25/1/4 28/1/4
f 31/2/5 30/2/5 29/2/5
f 32/2/5 30/2/5 31/2/5
f 33/1/6 34/1/6 35/1/6
f 35/1/6 34/1/6 36/1/6
f 33/1/6 35/1/6 37/1/6
f 35/4/6 36/4/6 38/4/6
f 37/1/6 35/1/6 38/1/6
f 33/1/6 37/1/6 39/1/6
f 37/4/6 38/4/6 39/4/6
f 36/1/6 34/1/6 40/1/6
f 39/4/6 38/4/6 40/4/6
f 38/4/6 36/4/6 40/4/6
f 33/1/6 39/1/6 41/1/6
f 39/1/6 40/1/6 41/1/6
f 40/1/6 34/1/6 42/1/6
f 41/1/6 40/1/6 42/1/6
