# MagicaVoxel @ Ephtracy

# group
o 

# material
mtllib Chain armor-1.mtl
usemtl palette

# normals
vn 0 0 -1
vn 0 0 1
vn -1 0 0
vn 1 0 0
vn 0 -1 0
vn 0 1 0

# texcoords
vt 0.912109 0.5
vt 0.916016 0.5
vt 0.919922 0.5
vt 0.927734 0.5
vt 0.970703 0.5

# verts
v -0.2 0 -0.2
v 0.2 0 -0.2
v -0.2 0.2 -0.2
v -0.1 0.2 -0.2
v 0 0.2 -0.2
v 0.1 0.2 -0.2
v 0.2 0.2 -0.2
v -0.2 0.3 -0.2
v -0.1 0.3 -0.2
v 0 0.3 -0.2
v 0.1 0.3 -0.2
v 0.2 0.3 -0.2
v -0.2 0.4 -0.2
v -0.1 0.4 -0.2
v 0 0.4 -0.2
v 0.1 0.4 -0.2
v 0.2 0.4 -0.2
v -0.2 0.5 -0.2
v -0.1 0.5 -0.2
v 0 0.5 -0.2
v 0.1 0.5 -0.2
v 0.2 0.5 -0.2
v -0.2 0.6 -0.2
v -0.1 0.6 -0.2
v 0 0.6 -0.2
v 0.1 0.6 -0.2
v 0.2 0.6 -0.2
v -0.2 0.7 -0.2
v -0.1 0.7 -0.2
v 0 0.7 -0.2
v 0.1 0.7 -0.2
v 0.2 0.7 -0.2
v -0.2 0.8 -0.2
v -0.1 0.8 -0.2
v 0 0.8 -0.2
v 0.1 0.8 -0.2
v 0.2 0.8 -0.2
v -0.2 0.9 -0.2
v -0.1 0.9 -0.2
v 0 0.9 -0.2
v 0.1 0.9 -0.2
v 0.2 0.9 -0.2
v -0.2 1 -0.2
v -0.1 1 -0.2
v 0 1 -0.2
v 0.1 1 -0.2
v 0.2 1 -0.2
v -0.2 1.1 -0.2
v -0.1 1.1 -0.2
v 0 1.1 -0.2
v 0.1 1.1 -0.2
v 0.2 1.1 -0.2
v -0.2 1.2 -0.2
v -0.1 1.2 -0.2
v 0 1.2 -0.2
v 0.1 1.2 -0.2
v 0.2 1.2 -0.2
v -0.2 0 0.2
v 0.2 0 0.2
v -0.2 0.2 0.2
v -0.1 0.2 0.2
v 0 0.2 0.2
v 0.1 0.2 0.2
v 0.2 0.2 0.2
v -0.2 0.3 0.2
v -0.1 0.3 0.2
v 0 0.3 0.2
v 0.1 0.3 0.2
v 0.2 0.3 0.2
v -0.2 0.4 0.2
v -0.1 0.4 0.2
v 0 0.4 0.2
v 0.1 0.4 0.2
v 0.2 0.4 0.2
v -0.2 0.5 0.2
v -0.1 0.5 0.2
v 0 0.5 0.2
v 0.1 0.5 0.2
v 0.2 0.5 0.2
v -0.2 0.6 0.2
v -0.1 0.6 0.2
v 0 0.6 0.2
v 0.1 0.6 0.2
v 0.2 0.6 0.2
v -0.2 0.7 0.2
v -0.1 0.7 0.2
v 0 0.7 0.2
v 0.1 0.7 0.2
v 0.2 0.7 0.2
v -0.2 0.8 0.2
v -0.1 0.8 0.2
v 0 0.8 0.2
v 0.1 0.8 0.2
v 0.2 0.8 0.2
v -0.2 0.9 0.2
v -0.1 0.9 0.2
v 0 0.9 0.2
v 0.1 0.9 0.2
v 0.2 0.9 0.2
v -0.2 1 0.2
v -0.1 1 0.2
v 0 1 0.2
v 0.1 1 0.2
v 0.2 1 0.2
v -0.2 1.1 0.2
v -0.1 1.1 0.2
v 0 1.1 0.2
v 0.1 1.1 0.2
v 0.2 1.1 0.2
v -0.2 1.2 0.2
v -0.1 1.2 0.2
v 0 1.2 0.2
v 0.1 1.2 0.2
v 0.2 1.2 0.2
v -0.2 0 -0.2
v -0.2 0.2 -0.2
v -0.2 0.3 -0.2
v -0.2 0.4 -0.2
v -0.2 0.5 -0.2
v -0.2 0.6 -0.2
v -0.2 0.7 -0.2
v -0.2 0.8 -0.2
v -0.2 0.9 -0.2
v -0.2 1 -0.2
v -0.2 1.1 -0.2
v -0.2 1.2 -0.2
v -0.2 0.2 -0.1
v -0.2 0.3 -0.1
v -0.2 0.4 -0.1
v -0.2 0.5 -0.1
v -0.2 0.6 -0.1
v -0.2 0.7 -0.1
v -0.2 0.8 -0.1
v -0.2 0.9 -0.1
v -0.2 1 -0.1
v -0.2 1.1 -0.1
v -0.2 1.2 -0.1
v -0.2 0.2 0
v -0.2 0.3 0
v -0.2 0.4 0
v -0.2 0.5 0
v -0.2 0.6 0
v -0.2 0.7 0
v -0.2 0.8 0
v -0.2 0.9 0
v -0.2 1 0
v -0.2 1.1 0
v -0.2 1.2 0
v -0.2 0.2 0.1
v -0.2 0.3 0.1
v -0.2 0.4 0.1
v -0.2 0.5 0.1
v -0.2 0.6 0.1
v -0.2 0.7 0.1
v -0.2 0.8 0.1
v -0.2 0.9 0.1
v -0.2 1 0.1
v -0.2 1.1 0.1
v -0.2 1.2 0.1
v -0.2 0 0.2
v -0.2 0.2 0.2
v -0.2 0.3 0.2
v -0.2 0.4 0.2
v -0.2 0.5 0.2
v -0.2 0.6 0.2
v -0.2 0.7 0.2
v -0.2 0.8 0.2
v -0.2 0.9 0.2
v -0.2 1 0.2
v -0.2 1.1 0.2
v -0.2 1.2 0.2
v 0.2 0 -0.2
v 0.2 0.2 -0.2
v 0.2 0.3 -0.2
v 0.2 0.4 -0.2
v 0.2 0.5 -0.2
v 0.2 0.6 -0.2
v 0.2 0.7 -0.2
v 0.2 0.8 -0.2
v 0.2 0.9 -0.2
v 0.2 1 -0.2
v 0.2 1.1 -0.2
v 0.2 1.2 -0.2
v 0.2 0.2 -0.1
v 0.2 0.3 -0.1
v 0.2 0.4 -0.1
v 0.2 0.5 -0.1
v 0.2 0.6 -0.1
v 0.2 0.7 -0.1
v 0.2 0.8 -0.1
v 0.2 0.9 -0.1
v 0.2 1 -0.1
v 0.2 1.1 -0.1
v 0.2 1.2 -0.1
v 0.2 0.2 0
v 0.2 0.3 0
v 0.2 0.4 0
v 0.2 0.5 0
v 0.2 0.6 0
v 0.2 0.7 0
v 0.2 0.8 0
v 0.2 0.9 0
v 0.2 1 0
v 0.2 1.1 0
v 0.2 1.2 0
v 0.2 0.2 0.1
v 0.2 0.3 0.1
v 0.2 0.4 0.1
v 0.2 0.5 0.1
v 0.2 0.6 0.1
v 0.2 0.7 0.1
v 0.2 0.8 0.1
v 0.2 0.9 0.1
v 0.2 1 0.1
v 0.2 1.1 0.1
v 0.2 1.2 0.1
v 0.2 0 0.2
v 0.2 0.2 0.2
v 0.2 0.3 0.2
v 0.2 0.4 0.2
v 0.2 0.5 0.2
v 0.2 0.6 0.2
v 0.2 0.7 0.2
v 0.2 0.8 0.2
v 0.2 0.9 0.2
v 0.2 1 0.2
v 0.2 1.1 0.2
v 0.2 1.2 0.2
v -0.2 0 -0.2
v -0.2 0 0.2
v 0.2 0 -0.2
v 0.2 0 0.2
v -0.2 1.2 -0.2
v -0.2 1.2 -0.1
v -0.2 1.2 0
v -0.2 1.2 0.1
v -0.2 1.2 0.2
v -0.1 1.2 -0.2
v -0.1 1.2 -0.1
v -0.1 1.2 0
v -0.1 1.2 0.1
v -0.1 1.2 0.2
v 0 1.2 -0.2
v 0 1.2 -0.1
v 0 1.2 0.1
v 0 1.2 0.2
v 0.1 1.2 -0.2
v 0.1 1.2 -0.1
v 0.1 1.2 0
v 0.1 1.2 0.1
v 0.1 1.2 0.2
v 0.2 1.2 -0.2
v 0.2 1.2 -0.1
v 0.2 1.2 0
v 0.2 1.2 0.1
v 0.2 1.2 0.2

# faces
f 3/2/1 2/2/1 1/2/1
f 4/2/1 2/2/1 3/2/1
f 5/2/1 2/2/1 4/2/1
f 6/2/1 2/2/1 5/2/1
f 7/2/1 2/2/1 6/2/1
f 8/4/1 4/4/1 3/4/1
f 9/1/1 5/1/1 4/1/1
f 9/4/1 4/4/1 8/4/1
f 10/4/1 6/4/1 5/4/1
f 10/1/1 5/1/1 9/1/1
f 11/1/1 7/1/1 6/1/1
f 11/4/1 6/4/1 10/4/1
f 12/1/1 7/1/1 11/1/1
f 13/1/1 9/1/1 8/1/1
f 14/4/1 10/4/1 9/4/1
f 14/1/1 9/1/1 13/1/1
f 15/1/1 11/1/1 10/1/1
f 15/4/1 10/4/1 14/4/1
f 16/4/1 12/4/1 11/4/1
f 16/1/1 11/1/1 15/1/1
f 17/4/1 12/4/1 16/4/1
f 18/4/1 14/4/1 13/4/1
f 19/1/1 15/1/1 14/1/1
f 19/4/1 14/4/1 18/4/1
f 20/4/1 16/4/1 15/4/1
f 20/1/1 15/1/1 19/1/1
f 21/1/1 17/1/1 16/1/1
f 21/4/1 16/4/1 20/4/1
f 22/1/1 17/1/1 21/1/1
f 23/1/1 19/1/1 18/1/1
f 24/4/1 20/4/1 19/4/1
f 24/1/1 19/1/1 23/1/1
f 25/1/1 21/1/1 20/1/1
f 25/4/1 20/4/1 24/4/1
f 26/4/1 22/4/1 21/4/1
f 26/1/1 21/1/1 25/1/1
f 27/4/1 22/4/1 26/4/1
f 28/4/1 24/4/1 23/4/1
f 29/1/1 25/1/1 24/1/1
f 29/4/1 24/4/1 28/4/1
f 30/4/1 26/4/1 25/4/1
f 30/1/1 25/1/1 29/1/1
f 31/1/1 27/1/1 26/1/1
f 31/4/1 26/4/1 30/4/1
f 32/1/1 27/1/1 31/1/1
f 33/1/1 29/1/1 28/1/1
f 34/4/1 30/4/1 29/4/1
f 34/1/1 29/1/1 33/1/1
f 35/1/1 31/1/1 30/1/1
f 35/4/1 30/4/1 34/4/1
f 36/4/1 32/4/1 31/4/1
f 36/1/1 31/1/1 35/1/1
f 37/4/1 32/4/1 36/4/1
f 38/4/1 34/4/1 33/4/1
f 39/1/1 35/1/1 34/1/1
f 39/4/1 34/4/1 38/4/1
f 40/4/1 36/4/1 35/4/1
f 40/1/1 35/1/1 39/1/1
f 41/1/1 37/1/1 36/1/1
f 41/4/1 36/4/1 40/4/1
f 42/1/1 37/1/1 41/1/1
f 43/1/1 39/1/1 38/1/1
f 44/4/1 40/4/1 39/4/1
f 44/1/1 39/1/1 43/1/1
f 45/1/1 41/1/1 40/1/1
f 45/4/1 40/4/1 44/4/1
f 46/4/1 42/4/1 41/4/1
f 46/1/1 41/1/1 45/1/1
f 47/4/1 42/4/1 46/4/1
f 48/4/1 44/4/1 43/4/1
f 49/1/1 45/1/1 44/1/1
f 49/4/1 44/4/1 48/4/1
f 50/4/1 46/4/1 45/4/1
f 50/1/1 45/1/1 49/1/1
f 51/1/1 47/1/1 46/1/1
f 51/4/1 46/4/1 50/4/1
f 52/1/1 47/1/1 51/1/1
f 53/1/1 49/1/1 48/1/1
f 54/4/1 50/4/1 49/4/1
f 54/1/1 49/1/1 53/1/1
f 55/1/1 51/1/1 50/1/1
f 55/4/1 50/4/1 54/4/1
f 56/4/1 52/4/1 51/4/1
f 56/1/1 51/1/1 55/1/1
f 57/4/1 52/4/1 56/4/1
f 58/2/2 59/2/2 60/2/2
f 60/2/2 59/2/2 61/2/2
f 61/2/2 59/2/2 62/2/2
f 62/2/2 59/2/2 63/2/2
f 63/2/2 59/2/2 64/2/2
f 60/1/2 61/1/2 65/1/2
f 61/4/2 62/4/2 66/4/2
f 65/1/2 61/1/2 66/1/2
f 62/1/2 63/1/2 67/1/2
f 66/4/2 62/4/2 67/4/2
f 63/4/2 64/4/2 68/4/2
f 67/1/2 63/1/2 68/1/2
f 68/4/2 64/4/2 69/4/2
f 65/4/2 66/4/2 70/4/2
f 66/1/2 67/1/2 71/1/2
f 70/4/2 66/4/2 71/4/2
f 67/4/2 68/4/2 72/4/2
f 71/1/2 67/1/2 72/1/2
f 68/1/2 69/1/2 73/1/2
f 72/4/2 68/4/2 73/4/2
f 73/1/2 69/1/2 74/1/2
f 70/1/2 71/1/2 75/1/2
f 71/4/2 72/4/2 76/4/2
f 75/1/2 71/1/2 76/1/2
f 72/1/2 73/1/2 77/1/2
f 76/4/2 72/4/2 77/4/2
f 73/4/2 74/4/2 78/4/2
f 77/1/2 73/1/2 78/1/2
f 78/4/2 74/4/2 79/4/2
f 75/4/2 76/4/2 80/4/2
f 76/1/2 77/1/2 81/1/2
f 80/4/2 76/4/2 81/4/2
f 77/4/2 78/4/2 82/4/2
f 81/1/2 77/1/2 82/1/2
f 78/1/2 79/1/2 83/1/2
f 82/4/2 78/4/2 83/4/2
f 83/1/2 79/1/2 84/1/2
f 80/1/2 81/1/2 85/1/2
f 81/4/2 82/4/2 86/4/2
f 85/1/2 81/1/2 86/1/2
f 82/3/2 83/3/2 87/3/2
f 86/4/2 82/4/2 87/4/2
f 83/4/2 84/4/2 88/4/2
f 87/3/2 83/3/2 88/3/2
f 88/4/2 84/4/2 89/4/2
f 85/4/2 86/4/2 90/4/2
f 86/1/2 87/1/2 91/1/2
f 90/4/2 86/4/2 91/4/2
f 87/4/2 88/4/2 92/4/2
f 91/1/2 87/1/2 92/1/2
f 88/1/2 89/1/2 93/1/2
f 92/4/2 88/4/2 93/4/2
f 93/1/2 89/1/2 94/1/2
f 90/1/2 91/1/2 95/1/2
f 91/4/2 92/4/2 96/4/2
f 95/1/2 91/1/2 96/1/2
f 92/1/2 93/1/2 97/1/2
f 96/4/2 92/4/2 97/4/2
f 93/4/2 94/4/2 98/4/2
f 97/1/2 93/1/2 98/1/2
f 98/4/2 94/4/2 99/4/2
f 95/4/2 96/4/2 100/4/2
f 96/1/2 97/1/2 101/1/2
f 100/4/2 96/4/2 101/4/2
f 97/4/2 98/4/2 102/4/2
f 101/1/2 97/1/2 102/1/2
f 98/1/2 99/1/2 103/1/2
f 102/4/2 98/4/2 103/4/2
f 103/1/2 99/1/2 104/1/2
f 100/1/2 101/1/2 105/1/2
f 101/4/2 102/4/2 106/4/2
f 105/1/2 101/1/2 106/1/2
f 102/1/2 103/1/2 107/1/2
f 106/4/2 102/4/2 107/4/2
f 103/4/2 104/4/2 108/4/2
f 107/1/2 103/1/2 108/1/2
f 108/4/2 104/4/2 109/4/2
f 105/4/2 106/4/2 110/4/2
f 106/1/2 107/1/2 111/1/2
f 110/4/2 106/4/2 111/4/2
f 107/4/2 108/4/2 112/4/2
f 111/1/2 107/1/2 112/1/2
f 108/1/2 109/1/2 113/1/2
f 112/4/2 108/4/2 113/4/2
f 113/1/2 109/1/2 114/1/2
f 127/2/3 116/2/3 115/2/3
f 127/4/3 117/4/3 116/4/3
f 128/1/3 118/1/3 117/1/3
f 128/4/3 117/4/3 127/4/3
f 129/4/3 119/4/3 118/4/3
f 129/1/3 118/1/3 128/1/3
f 130/1/3 120/1/3 119/1/3
f 130/4/3 119/4/3 129/4/3
f 131/4/3 121/4/3 120/4/3
f 131/1/3 120/1/3 130/1/3
f 132/1/3 122/1/3 121/1/3
f 132/4/3 121/4/3 131/4/3
f 133/4/3 123/4/3 122/4/3
f 133/1/3 122/1/3 132/1/3
f 134/1/3 124/1/3 123/1/3
f 134/4/3 123/4/3 133/4/3
f 135/4/3 125/4/3 124/4/3
f 135/1/3 124/1/3 134/1/3
f 136/1/3 126/1/3 125/1/3
f 136/4/3 125/4/3 135/4/3
f 137/1/3 126/1/3 136/1/3
f 138/2/3 127/2/3 115/2/3
f 138/1/3 128/1/3 127/1/3
f 139/4/3 129/4/3 128/4/3
f 139/1/3 128/1/3 138/1/3
f 140/1/3 130/1/3 129/1/3
f 140/4/3 129/4/3 139/4/3
f 141/4/3 131/4/3 130/4/3
f 141/1/3 130/1/3 140/1/3
f 142/1/3 132/1/3 131/1/3
f 142/4/3 131/4/3 141/4/3
f 143/4/3 133/4/3 132/4/3
f 143/1/3 132/1/3 142/1/3
f 144/1/3 134/1/3 133/1/3
f 144/4/3 133/4/3 143/4/3
f 145/4/3 135/4/3 134/4/3
f 145/1/3 134/1/3 144/1/3
f 146/1/3 136/1/3 135/1/3
f 146/4/3 135/4/3 145/4/3
f 147/4/3 137/4/3 136/4/3
f 147/1/3 136/1/3 146/1/3
f 148/4/3 137/4/3 147/4/3
f 149/2/3 138/2/3 115/2/3
f 149/4/3 139/4/3 138/4/3
f 150/1/3 140/1/3 139/1/3
f 150/4/3 139/4/3 149/4/3
f 151/4/3 141/4/3 140/4/3
f 151/1/3 140/1/3 150/1/3
f 152/1/3 142/1/3 141/1/3
f 152/4/3 141/4/3 151/4/3
f 153/4/3 143/4/3 142/4/3
f 153/1/3 142/1/3 152/1/3
f 154/1/3 144/1/3 143/1/3
f 154/4/3 143/4/3 153/4/3
f 155/4/3 145/4/3 144/4/3
f 155/1/3 144/1/3 154/1/3
f 156/1/3 146/1/3 145/1/3
f 156/4/3 145/4/3 155/4/3
f 157/4/3 147/4/3 146/4/3
f 157/1/3 146/1/3 156/1/3
f 158/1/3 148/1/3 147/1/3
f 158/4/3 147/4/3 157/4/3
f 159/1/3 148/1/3 158/1/3
f 160/2/3 149/2/3 115/2/3
f 161/1/3 150/1/3 149/1/3
f 161/2/3 149/2/3 160/2/3
f 162/4/3 151/4/3 150/4/3
f 162/1/3 150/1/3 161/1/3
f 163/1/3 152/1/3 151/1/3
f 163/4/3 151/4/3 162/4/3
f 164/4/3 153/4/3 152/4/3
f 164/1/3 152/1/3 163/1/3
f 165/1/3 154/1/3 153/1/3
f 165/4/3 153/4/3 164/4/3
f 166/4/3 155/4/3 154/4/3
f 166/1/3 154/1/3 165/1/3
f 167/1/3 156/1/3 155/1/3
f 167/4/3 155/4/3 166/4/3
f 168/4/3 157/4/3 156/4/3
f 168/1/3 156/1/3 167/1/3
f 169/1/3 158/1/3 157/1/3
f 169/4/3 157/4/3 168/4/3
f 170/4/3 159/4/3 158/4/3
f 170/1/3 158/1/3 169/1/3
f 171/4/3 159/4/3 170/4/3
f 172/2/4 173/2/4 184/2/4
f 173/1/4 174/1/4 184/1/4
f 174/4/4 175/4/4 185/4/4
f 184/1/4 174/1/4 185/1/4
f 175/1/4 176/1/4 186/1/4
f 185/4/4 175/4/4 186/4/4
f 176/4/4 177/4/4 187/4/4
f 186/1/4 176/1/4 187/1/4
f 177/1/4 178/1/4 188/1/4
f 187/4/4 177/4/4 188/4/4
f 178/4/4 179/4/4 189/4/4
f 188/1/4 178/1/4 189/1/4
f 179/1/4 180/1/4 190/1/4
f 189/4/4 179/4/4 190/4/4
f 180/4/4 181/4/4 191/4/4
f 190/1/4 180/1/4 191/1/4
f 181/1/4 182/1/4 192/1/4
f 191/4/4 181/4/4 192/4/4
f 182/4/4 183/4/4 193/4/4
f 192/1/4 182/1/4 193/1/4
f 193/4/4 183/4/4 194/4/4
f 172/2/4 184/2/4 195/2/4
f 184/4/4 185/4/4 195/4/4
f 185/1/4 186/1/4 196/1/4
f 195/4/4 185/4/4 196/4/4
f 186/4/4 187/4/4 197/4/4
f 196/1/4 186/1/4 197/1/4
f 187/1/4 188/1/4 198/1/4
f 197/4/4 187/4/4 198/4/4
f 188/4/4 189/4/4 199/4/4
f 198/1/4 188/1/4 199/1/4
f 189/1/4 190/1/4 200/1/4
f 199/4/4 189/4/4 200/4/4
f 190/4/4 191/4/4 201/4/4
f 200/1/4 190/1/4 201/1/4
f 191/1/4 192/1/4 202/1/4
f 201/4/4 191/4/4 202/4/4
f 192/4/4 193/4/4 203/4/4
f 202/1/4 192/1/4 203/1/4
f 193/1/4 194/1/4 204/1/4
f 203/4/4 193/4/4 204/4/4
f 204/1/4 194/1/4 205/1/4
f 172/2/4 195/2/4 206/2/4
f 195/1/4 196/1/4 206/1/4
f 196/4/4 197/4/4 207/4/4
f 206/1/4 196/1/4 207/1/4
f 197/1/4 198/1/4 208/1/4
f 207/4/4 197/4/4 208/4/4
f 198/4/4 199/4/4 209/4/4
f 208/1/4 198/1/4 209/1/4
f 199/1/4 200/1/4 210/1/4
f 209/4/4 199/4/4 210/4/4
f 200/4/4 201/4/4 211/4/4
f 210/1/4 200/1/4 211/1/4
f 201/1/4 202/1/4 212/1/4
f 211/4/4 201/4/4 212/4/4
f 202/4/4 203/4/4 213/4/4
f 212/1/4 202/1/4 213/1/4
f 203/1/4 204/1/4 214/1/4
f 213/4/4 203/4/4 214/4/4
f 204/4/4 205/4/4 215/4/4
f 214/1/4 204/1/4 215/1/4
f 215/4/4 205/4/4 216/4/4
f 172/2/4 206/2/4 217/2/4
f 206/4/4 207/4/4 218/4/4
f 217/2/4 206/2/4 218/2/4
f 207/1/4 208/1/4 219/1/4
f 218/4/4 207/4/4 219/4/4
f 208/4/4 209/4/4 220/4/4
f 219/1/4 208/1/4 220/1/4
f 209/1/4 210/1/4 221/1/4
f 220/4/4 209/4/4 221/4/4
f 210/4/4 211/4/4 222/4/4
f 221/1/4 210/1/4 222/1/4
f 211/1/4 212/1/4 223/1/4
f 222/4/4 211/4/4 223/4/4
f 212/4/4 213/4/4 224/4/4
f 223/1/4 212/1/4 224/1/4
f 213/1/4 214/1/4 225/1/4
f 224/4/4 213/4/4 225/4/4
f 214/4/4 215/4/4 226/4/4
f 225/1/4 214/1/4 226/1/4
f 215/1/4 216/1/4 227/1/4
f 226/4/4 215/4/4 227/4/4
f 227/1/4 216/1/4 228/1/4
f 231/2/5 230/2/5 229/2/5
f 232/2/5 230/2/5 231/2/5
f 233/1/6 234/1/6 238/1/6
f 234/4/6 235/4/6 239/4/6
f 238/1/6 234/1/6 239/1/6
f 235/1/6 236/1/6 240/1/6
f 239/4/6 235/4/6 240/4/6
f 236/4/6 237/4/6 241/4/6
f 240/1/6 236/1/6 241/1/6
f 241/4/6 237/4/6 242/4/6
f 238/4/6 239/4/6 243/4/6
f 239/1/6 240/1/6 244/1/6
f 243/4/6 239/4/6 244/4/6
f 240/1/6 241/1/6 244/1/6
f 241/1/6 242/1/6 244/1/6
f 244/1/6 242/1/6 245/1/6
f 245/1/6 242/1/6 246/1/6
f 243/1/6 244/1/6 247/1/6
f 244/1/6 245/1/6 247/1/6
f 247/1/6 245/1/6 248/1/6
f 248/1/6 245/1/6 249/1/6
f 245/4/6 246/4/6 250/4/6
f 249/1/6 245/1/6 250/1/6
f 250/4/6 246/4/6 251/4/6
f 247/4/6 248/4/6 252/4/6
f 248/1/6 249/1/6 253/1/6
f 252/4/6 248/4/6 253/4/6
f 249/4/6 250/4/6 254/4/6
f 253/1/6 249/1/6 254/1/6
f 250/1/6 251/1/6 255/1/6
f 254/4/6 250/4/6 255/4/6
f 255/1/6 251/1/6 256/1/6
