# MagicaVoxel @ Ephtracy

# group
o 

# material
mtllib Diamond Sword.mtl
usemtl palette

# normals
vn -1 0 0
vn 1 0 0
vn 0 0 1
vn 0 0 -1
vn 0 -1 0
vn 0 1 0

# texcoords
vt 0.970703 0.5
vt 0.974609 0.5
vt 0.978516 0.5
vt 0.982422 0.5
vt 0.986328 0.5
vt 0.990234 0.5

# verts
v -0.8 1.4 0.1
v -0.8 1.4 0
v -0.8 1.7 0.1
v -0.8 1.7 0
v -0.7 1.3 0.1
v -0.7 1.3 0
v -0.7 1.4 0.1
v -0.7 1.4 0
v -0.6 1.2 0.1
v -0.6 1.2 0
v -0.6 1.3 0.1
v -0.6 1.3 0
v -0.5 1.1 0.1
v -0.5 1.1 0
v -0.5 1.2 0.1
v -0.5 1.2 0
v -0.4 1 0.1
v -0.4 1 0
v -0.4 1.1 0.1
v -0.4 1.1 0
v -0.3 0.9 0.1
v -0.3 0.9 0
v -0.3 1 0.1
v -0.3 1 0
v -0.2 0.3 0.1
v -0.2 0.3 0
v -0.2 0.5 0.1
v -0.2 0.5 0
v -0.2 0.8 0.1
v -0.2 0.8 0
v -0.2 0.9 0.1
v -0.2 0.9 0
v -0.1 0.5 0.1
v -0.1 0.5 0
v -0.1 0.6 0.1
v -0.1 0.6 0
v -0.1 0.7 0.1
v -0.1 0.7 0
v -0.1 0.8 0.1
v -0.1 0.8 0
v 0 0.6 0.1
v 0 0.6 0
v 0 0.7 0.1
v 0 0.7 0
v 0.3 0.4 0.1
v 0.3 0.4 0
v 0.3 0.5 0.1
v 0.3 0.5 0
v 0.3 0.9 0.1
v 0.3 0.9 0
v 0.3 1 0.1
v 0.3 1 0
v 0.4 0.3 0.1
v 0.4 0.3 0
v 0.4 0.4 0.1
v 0.4 0.4 0
v 0.4 1 0.1
v 0.4 1 0
v 0.4 1.1 0.1
v 0.4 1.1 0
v 0.5 0.1 0.1
v 0.5 0.1 0
v 0.5 0.3 0.1
v 0.5 0.3 0
v -0.5 1.6 0.1
v -0.5 1.6 0
v -0.5 1.7 0.1
v -0.5 1.7 0
v -0.4 1.5 0.1
v -0.4 1.5 0
v -0.4 1.6 0.1
v -0.4 1.6 0
v -0.3 1.4 0.1
v -0.3 1.4 0
v -0.3 1.5 0.1
v -0.3 1.5 0
v -0.2 1.3 0.1
v -0.2 1.3 0
v -0.2 1.4 0.1
v -0.2 1.4 0
v -0.1 1.2 0.1
v -0.1 1.2 0
v -0.1 1.3 0.1
v -0.1 1.3 0
v 0 0.3 0.1
v 0 0.3 0
v 0 0.4 0.1
v 0 0.4 0
v 0 1.1 0.1
v 0 1.1 0
v 0 1.2 0.1
v 0 1.2 0
v 0.1 1 0.1
v 0.1 1 0
v 0.1 1.1 0.1
v 0.1 1.1 0
v 0.2 0.4 0.1
v 0.2 0.4 0
v 0.2 0.5 0.1
v 0.2 0.5 0
v 0.2 0.9 0.1
v 0.2 0.9 0
v 0.2 1 0.1
v 0.2 1 0
v 0.4 0.6 0.1
v 0.4 0.6 0
v 0.4 0.7 0.1
v 0.4 0.7 0
v 0.5 0.5 0.1
v 0.5 0.5 0
v 0.5 0.6 0.1
v 0.5 0.6 0
v 0.5 0.7 0.1
v 0.5 0.7 0
v 0.5 0.9 0.1
v 0.5 0.9 0
v 0.6 0.4 0.1
v 0.6 0.4 0
v 0.6 0.5 0.1
v 0.6 0.5 0
v 0.6 0.9 0.1
v 0.6 0.9 0
v 0.6 1.1 0.1
v 0.6 1.1 0
v 0.8 0.1 0.1
v 0.8 0.1 0
v 0.8 0.4 0.1
v 0.8 0.4 0
v -0.8 1.4 0.1
v -0.8 1.7 0.1
v -0.7 1.3 0.1
v -0.7 1.4 0.1
v -0.7 1.5 0.1
v -0.7 1.6 0.1
v -0.6 1.2 0.1
v -0.6 1.3 0.1
v -0.6 1.4 0.1
v -0.6 1.5 0.1
v -0.6 1.6 0.1
v -0.5 1.1 0.1
v -0.5 1.2 0.1
v -0.5 1.3 0.1
v -0.5 1.4 0.1
v -0.5 1.5 0.1
v -0.5 1.6 0.1
v -0.5 1.7 0.1
v -0.4 1 0.1
v -0.4 1.1 0.1
v -0.4 1.2 0.1
v -0.4 1.3 0.1
v -0.4 1.4 0.1
v -0.4 1.5 0.1
v -0.4 1.6 0.1
v -0.3 0.9 0.1
v -0.3 1 0.1
v -0.3 1.1 0.1
v -0.3 1.2 0.1
v -0.3 1.3 0.1
v -0.3 1.4 0.1
v -0.3 1.5 0.1
v -0.2 0.3 0.1
v -0.2 0.5 0.1
v -0.2 0.8 0.1
v -0.2 0.9 0.1
v -0.2 1 0.1
v -0.2 1.1 0.1
v -0.2 1.2 0.1
v -0.2 1.3 0.1
v -0.2 1.4 0.1
v -0.1 0.4 0.1
v -0.1 0.5 0.1
v -0.1 0.6 0.1
v -0.1 0.7 0.1
v -0.1 0.8 0.1
v -0.1 0.9 0.1
v -0.1 1 0.1
v -0.1 1.1 0.1
v -0.1 1.2 0.1
v -0.1 1.3 0.1
v 0 0.3 0.1
v 0 0.4 0.1
v 0 0.5 0.1
v 0 0.6 0.1
v 0 0.7 0.1
v 0 0.8 0.1
v 0 0.9 0.1
v 0 1 0.1
v 0 1.1 0.1
v 0 1.2 0.1
v 0.1 0.7 0.1
v 0.1 0.8 0.1
v 0.1 0.9 0.1
v 0.1 1 0.1
v 0.1 1.1 0.1
v 0.2 0.4 0.1
v 0.2 0.5 0.1
v 0.2 0.6 0.1
v 0.2 0.7 0.1
v 0.2 0.8 0.1
v 0.2 0.9 0.1
v 0.2 1 0.1
v 0.3 0.4 0.1
v 0.3 0.5 0.1
v 0.3 0.6 0.1
v 0.3 0.7 0.1
v 0.3 0.9 0.1
v 0.3 1 0.1
v 0.4 0.3 0.1
v 0.4 0.4 0.1
v 0.4 0.5 0.1
v 0.4 0.6 0.1
v 0.4 0.7 0.1
v 0.4 0.9 0.1
v 0.4 1 0.1
v 0.4 1.1 0.1
v 0.5 0.1 0.1
v 0.5 0.3 0.1
v 0.5 0.4 0.1
v 0.5 0.5 0.1
v 0.5 0.6 0.1
v 0.5 0.7 0.1
v 0.5 0.9 0.1
v 0.5 1 0.1
v 0.6 0.2 0.1
v 0.6 0.3 0.1
v 0.6 0.4 0.1
v 0.6 0.5 0.1
v 0.6 0.9 0.1
v 0.6 1.1 0.1
v 0.7 0.2 0.1
v 0.7 0.3 0.1
v 0.8 0.1 0.1
v 0.8 0.4 0.1
v -0.8 1.4 0
v -0.8 1.7 0
v -0.7 1.3 0
v -0.7 1.4 0
v -0.7 1.5 0
v -0.7 1.6 0
v -0.6 1.2 0
v -0.6 1.3 0
v -0.6 1.4 0
v -0.6 1.5 0
v -0.6 1.6 0
v -0.5 1.1 0
v -0.5 1.2 0
v -0.5 1.3 0
v -0.5 1.4 0
v -0.5 1.5 0
v -0.5 1.6 0
v -0.5 1.7 0
v -0.4 1 0
v -0.4 1.1 0
v -0.4 1.2 0
v -0.4 1.3 0
v -0.4 1.4 0
v -0.4 1.5 0
v -0.4 1.6 0
v -0.3 0.9 0
v -0.3 1 0
v -0.3 1.1 0
v -0.3 1.2 0
v -0.3 1.3 0
v -0.3 1.4 0
v -0.3 1.5 0
v -0.2 0.3 0
v -0.2 0.5 0
v -0.2 0.8 0
v -0.2 0.9 0
v -0.2 1 0
v -0.2 1.1 0
v -0.2 1.2 0
v -0.2 1.3 0
v -0.2 1.4 0
v -0.1 0.4 0
v -0.1 0.5 0
v -0.1 0.6 0
v -0.1 0.7 0
v -0.1 0.8 0
v -0.1 0.9 0
v -0.1 1 0
v -0.1 1.1 0
v -0.1 1.2 0
v -0.1 1.3 0
v 0 0.3 0
v 0 0.4 0
v 0 0.5 0
v 0 0.6 0
v 0 0.7 0
v 0 0.8 0
v 0 0.9 0
v 0 1 0
v 0 1.1 0
v 0 1.2 0
v 0.1 0.7 0
v 0.1 0.8 0
v 0.1 0.9 0
v 0.1 1 0
v 0.1 1.1 0
v 0.2 0.4 0
v 0.2 0.5 0
v 0.2 0.6 0
v 0.2 0.7 0
v 0.2 0.8 0
v 0.2 0.9 0
v 0.2 1 0
v 0.3 0.4 0
v 0.3 0.5 0
v 0.3 0.6 0
v 0.3 0.7 0
v 0.3 0.9 0
v 0.3 1 0
v 0.4 0.3 0
v 0.4 0.4 0
v 0.4 0.5 0
v 0.4 0.6 0
v 0.4 0.7 0
v 0.4 0.9 0
v 0.4 1 0
v 0.4 1.1 0
v 0.5 0.1 0
v 0.5 0.3 0
v 0.5 0.4 0
v 0.5 0.5 0
v 0.5 0.6 0
v 0.5 0.7 0
v 0.5 0.9 0
v 0.5 1 0
v 0.6 0.2 0
v 0.6 0.3 0
v 0.6 0.4 0
v 0.6 0.5 0
v 0.6 0.9 0
v 0.6 1.1 0
v 0.7 0.2 0
v 0.7 0.3 0
v 0.8 0.1 0
v 0.8 0.4 0
v 0.5 0.1 0.1
v 0.8 0.1 0.1
v 0.5 0.1 0
v 0.8 0.1 0
v -0.2 0.3 0.1
v 0 0.3 0.1
v 0.4 0.3 0.1
v 0.5 0.3 0.1
v -0.2 0.3 0
v 0 0.3 0
v 0.4 0.3 0
v 0.5 0.3 0
v 0 0.4 0.1
v 0.2 0.4 0.1
v 0.3 0.4 0.1
v 0.4 0.4 0.1
v 0 0.4 0
v 0.2 0.4 0
v 0.3 0.4 0
v 0.4 0.4 0
v 0.2 0.5 0.1
v 0.3 0.5 0.1
v 0.2 0.5 0
v 0.3 0.5 0
v -0.1 0.7 0.1
v 0 0.7 0.1
v 0.4 0.7 0.1
v 0.5 0.7 0.1
v -0.1 0.7 0
v 0 0.7 0
v 0.4 0.7 0
v 0.5 0.7 0
v -0.2 0.8 0.1
v -0.1 0.8 0.1
v -0.2 0.8 0
v -0.1 0.8 0
v -0.3 0.9 0.1
v -0.2 0.9 0.1
v 0.5 0.9 0.1
v 0.6 0.9 0.1
v -0.3 0.9 0
v -0.2 0.9 0
v 0.5 0.9 0
v 0.6 0.9 0
v -0.4 1 0.1
v -0.3 1 0.1
v -0.4 1 0
v -0.3 1 0
v -0.5 1.1 0.1
v -0.4 1.1 0.1
v -0.5 1.1 0
v -0.4 1.1 0
v -0.6 1.2 0.1
v -0.5 1.2 0.1
v -0.6 1.2 0
v -0.5 1.2 0
v -0.7 1.3 0.1
v -0.6 1.3 0.1
v -0.7 1.3 0
v -0.6 1.3 0
v -0.8 1.4 0.1
v -0.7 1.4 0.1
v -0.8 1.4 0
v -0.7 1.4 0
v 0.6 0.4 0.1
v 0.8 0.4 0.1
v 0.6 0.4 0
v 0.8 0.4 0
v -0.2 0.5 0.1
v -0.1 0.5 0.1
v 0.5 0.5 0.1
v 0.6 0.5 0.1
v -0.2 0.5 0
v -0.1 0.5 0
v 0.5 0.5 0
v 0.6 0.5 0
v -0.1 0.6 0.1
v 0 0.6 0.1
v 0.4 0.6 0.1
v 0.5 0.6 0.1
v -0.1 0.6 0
v 0 0.6 0
v 0.4 0.6 0
v 0.5 0.6 0
v 0.2 0.9 0.1
v 0.3 0.9 0.1
v 0.2 0.9 0
v 0.3 0.9 0
v 0.1 1 0.1
v 0.2 1 0.1
v 0.3 1 0.1
v 0.4 1 0.1
v 0.1 1 0
v 0.2 1 0
v 0.3 1 0
v 0.4 1 0
v 0 1.1 0.1
v 0.1 1.1 0.1
v 0.4 1.1 0.1
v 0.6 1.1 0.1
v 0 1.1 0
v 0.1 1.1 0
v 0.4 1.1 0
v 0.6 1.1 0
v -0.1 1.2 0.1
v 0 1.2 0.1
v -0.1 1.2 0
v 0 1.2 0
v -0.2 1.3 0.1
v -0.1 1.3 0.1
v -0.2 1.3 0
v -0.1 1.3 0
v -0.3 1.4 0.1
v -0.2 1.4 0.1
v -0.3 1.4 0
v -0.2 1.4 0
v -0.4 1.5 0.1
v -0.3 1.5 0.1
v -0.4 1.5 0
v -0.3 1.5 0
v -0.5 1.6 0.1
v -0.4 1.6 0.1
v -0.5 1.6 0
v -0.4 1.6 0
v -0.8 1.7 0.1
v -0.5 1.7 0.1
v -0.8 1.7 0
v -0.5 1.7 0

# faces
f 3/1/1 2/1/1 1/1/1
f 4/1/1 2/1/1 3/1/1
f 7/1/1 6/1/1 5/1/1
f 8/1/1 6/1/1 7/1/1
f 11/1/1 10/1/1 9/1/1
f 12/1/1 10/1/1 11/1/1
f 15/1/1 14/1/1 13/1/1
f 16/1/1 14/1/1 15/1/1
f 19/1/1 18/1/1 17/1/1
f 20/1/1 18/1/1 19/1/1
f 23/1/1 22/1/1 21/1/1
f 24/1/1 22/1/1 23/1/1
f 27/1/1 26/1/1 25/1/1
f 28/1/1 26/1/1 27/1/1
f 31/1/1 30/1/1 29/1/1
f 32/1/1 30/1/1 31/1/1
f 35/1/1 34/1/1 33/1/1
f 36/1/1 34/1/1 35/1/1
f 39/1/1 38/1/1 37/1/1
f 40/1/1 38/1/1 39/1/1
f 43/1/1 42/1/1 41/1/1
f 44/1/1 42/1/1 43/1/1
f 47/5/1 46/5/1 45/5/1
f 48/5/1 46/5/1 47/5/1
f 51/1/1 50/1/1 49/1/1
f 52/1/1 50/1/1 51/1/1
f 55/5/1 54/5/1 53/5/1
f 56/5/1 54/5/1 55/5/1
f 59/1/1 58/1/1 57/1/1
f 60/1/1 58/1/1 59/1/1
f 63/1/1 62/1/1 61/1/1
f 64/1/1 62/1/1 63/1/1
f 65/1/2 66/1/2 67/1/2
f 67/1/2 66/1/2 68/1/2
f 69/1/2 70/1/2 71/1/2
f 71/1/2 70/1/2 72/1/2
f 73/1/2 74/1/2 75/1/2
f 75/1/2 74/1/2 76/1/2
f 77/1/2 78/1/2 79/1/2
f 79/1/2 78/1/2 80/1/2
f 81/1/2 82/1/2 83/1/2
f 83/1/2 82/1/2 84/1/2
f 85/1/2 86/1/2 87/1/2
f 87/1/2 86/1/2 88/1/2
f 89/1/2 90/1/2 91/1/2
f 91/1/2 90/1/2 92/1/2
f 93/1/2 94/1/2 95/1/2
f 95/1/2 94/1/2 96/1/2
f 97/1/2 98/1/2 99/1/2
f 99/1/2 98/1/2 100/1/2
f 101/1/2 102/1/2 103/1/2
f 103/1/2 102/1/2 104/1/2
f 105/1/2 106/1/2 107/1/2
f 107/1/2 106/1/2 108/1/2
f 109/5/2 110/5/2 111/5/2
f 111/5/2 110/5/2 112/5/2
f 113/1/2 114/1/2 115/1/2
f 115/1/2 114/1/2 116/1/2
f 117/5/2 118/5/2 119/5/2
f 119/5/2 118/5/2 120/5/2
f 121/1/2 122/1/2 123/1/2
f 123/1/2 122/1/2 124/1/2
f 125/1/2 126/1/2 127/1/2
f 127/1/2 126/1/2 128/1/2
f 132/1/3 130/1/3 129/1/3
f 133/1/3 130/1/3 132/1/3
f 134/1/3 130/1/3 133/1/3
f 136/1/3 132/1/3 131/1/3
f 137/3/3 133/3/3 132/3/3
f 137/1/3 132/1/3 136/1/3
f 138/2/3 134/2/3 133/2/3
f 138/3/3 133/3/3 137/3/3
f 139/1/3 130/1/3 134/1/3
f 139/2/3 134/2/3 138/2/3
f 141/1/3 136/1/3 135/1/3
f 142/3/3 137/3/3 136/3/3
f 142/1/3 136/1/3 141/1/3
f 143/2/3 138/2/3 137/2/3
f 143/3/3 137/3/3 142/3/3
f 144/3/3 139/3/3 138/3/3
f 144/2/3 138/2/3 143/2/3
f 145/1/3 130/1/3 139/1/3
f 145/3/3 139/3/3 144/3/3
f 146/1/3 130/1/3 145/1/3
f 148/1/3 141/1/3 140/1/3
f 149/3/3 142/3/3 141/3/3
f 149/1/3 141/1/3 148/1/3
f 150/2/3 143/2/3 142/2/3
f 150/3/3 142/3/3 149/3/3
f 151/3/3 144/3/3 143/3/3
f 151/2/3 143/2/3 150/2/3
f 152/1/3 145/1/3 144/1/3
f 152/3/3 144/3/3 151/3/3
f 153/1/3 145/1/3 152/1/3
f 155/1/3 148/1/3 147/1/3
f 156/3/3 149/3/3 148/3/3
f 156/1/3 148/1/3 155/1/3
f 157/2/3 150/2/3 149/2/3
f 157/3/3 149/3/3 156/3/3
f 158/3/3 151/3/3 150/3/3
f 158/2/3 150/2/3 157/2/3
f 159/1/3 152/1/3 151/1/3
f 159/3/3 151/3/3 158/3/3
f 160/1/3 152/1/3 159/1/3
f 164/1/3 155/1/3 154/1/3
f 165/3/3 156/3/3 155/3/3
f 165/1/3 155/1/3 164/1/3
f 166/2/3 157/2/3 156/2/3
f 166/3/3 156/3/3 165/3/3
f 167/3/3 158/3/3 157/3/3
f 167/2/3 157/2/3 166/2/3
f 168/1/3 159/1/3 158/1/3
f 168/3/3 158/3/3 167/3/3
f 169/1/3 159/1/3 168/1/3
f 170/1/3 162/1/3 161/1/3
f 171/1/3 162/1/3 170/1/3
f 174/1/3 164/1/3 163/1/3
f 175/3/3 165/3/3 164/3/3
f 175/1/3 164/1/3 174/1/3
f 176/2/3 166/2/3 165/2/3
f 176/3/3 165/3/3 175/3/3
f 177/3/3 167/3/3 166/3/3
f 177/2/3 166/2/3 176/2/3
f 178/1/3 168/1/3 167/1/3
f 178/3/3 167/3/3 177/3/3
f 179/1/3 168/1/3 178/1/3
f 180/1/3 170/1/3 161/1/3
f 181/4/3 171/4/3 170/4/3
f 181/1/3 170/1/3 180/1/3
f 182/1/3 172/1/3 171/1/3
f 182/4/3 171/4/3 181/4/3
f 183/1/3 172/1/3 182/1/3
f 184/1/3 174/1/3 173/1/3
f 185/3/3 175/3/3 174/3/3
f 185/1/3 174/1/3 184/1/3
f 186/2/3 176/2/3 175/2/3
f 186/3/3 175/3/3 185/3/3
f 187/3/3 177/3/3 176/3/3
f 187/2/3 176/2/3 186/2/3
f 188/1/3 178/1/3 177/1/3
f 188/3/3 177/3/3 187/3/3
f 189/1/3 178/1/3 188/1/3
f 190/1/3 184/1/3 183/1/3
f 190/3/3 185/3/3 184/3/3
f 191/2/3 186/2/3 185/2/3
f 191/3/3 185/3/3 190/3/3
f 192/3/3 187/3/3 186/3/3
f 192/2/3 186/2/3 191/2/3
f 193/1/3 188/1/3 187/1/3
f 193/3/3 187/3/3 192/3/3
f 194/1/3 188/1/3 193/1/3
f 195/1/3 182/1/3 181/1/3
f 196/4/3 183/4/3 182/4/3
f 196/1/3 182/1/3 195/1/3
f 197/1/3 190/1/3 183/1/3
f 197/4/3 183/4/3 196/4/3
f 198/2/3 191/2/3 190/2/3
f 198/1/3 190/1/3 197/1/3
f 199/3/3 192/3/3 191/3/3
f 199/2/3 191/2/3 198/2/3
f 200/1/3 193/1/3 192/1/3
f 200/3/3 192/3/3 199/3/3
f 201/1/3 193/1/3 200/1/3
f 203/1/3 197/1/3 196/1/3
f 204/4/3 198/4/3 197/4/3
f 204/1/3 197/1/3 203/1/3
f 205/1/3 200/1/3 199/1/3
f 205/4/3 198/4/3 204/4/3
f 205/1/3 199/1/3 198/1/3
f 206/1/3 200/1/3 205/1/3
f 209/5/3 203/5/3 202/5/3
f 210/6/3 204/6/3 203/6/3
f 210/5/3 203/5/3 209/5/3
f 211/1/3 205/1/3 204/1/3
f 211/6/3 204/6/3 210/6/3
f 212/4/3 206/4/3 205/4/3
f 212/1/3 205/1/3 211/1/3
f 213/1/3 207/1/3 206/1/3
f 213/4/3 206/4/3 212/4/3
f 214/1/3 207/1/3 213/1/3
f 217/5/3 209/5/3 208/5/3
f 218/6/3 210/6/3 209/6/3
f 218/5/3 209/5/3 217/5/3
f 219/5/3 211/5/3 210/5/3
f 219/6/3 210/6/3 218/6/3
f 220/5/3 211/5/3 219/5/3
f 221/1/3 213/1/3 212/1/3
f 222/4/3 214/4/3 213/4/3
f 222/1/3 213/1/3 221/1/3
f 223/1/3 215/1/3 214/1/3
f 223/4/3 214/4/3 222/4/3
f 224/1/3 217/1/3 216/1/3
f 225/6/3 218/6/3 217/6/3
f 225/1/3 217/1/3 224/1/3
f 226/5/3 219/5/3 218/5/3
f 226/6/3 218/6/3 225/6/3
f 227/5/3 219/5/3 226/5/3
f 228/1/3 223/1/3 222/1/3
f 229/1/3 215/1/3 223/1/3
f 229/1/3 223/1/3 228/1/3
f 230/4/3 225/4/3 224/4/3
f 230/1/3 224/1/3 216/1/3
f 231/1/3 226/1/3 225/1/3
f 231/4/3 225/4/3 230/4/3
f 232/1/3 230/1/3 216/1/3
f 232/1/3 231/1/3 230/1/3
f 233/1/3 226/1/3 231/1/3
f 233/1/3 231/1/3 232/1/3
f 234/1/4 235/1/4 237/1/4
f 237/1/4 235/1/4 238/1/4
f 238/1/4 235/1/4 239/1/4
f 236/1/4 237/1/4 241/1/4
f 237/3/4 238/3/4 242/3/4
f 241/1/4 237/1/4 242/1/4
f 238/2/4 239/2/4 243/2/4
f 242/3/4 238/3/4 243/3/4
f 239/1/4 235/1/4 244/1/4
f 243/2/4 239/2/4 244/2/4
f 240/1/4 241/1/4 246/1/4
f 241/3/4 242/3/4 247/3/4
f 246/1/4 241/1/4 247/1/4
f 242/2/4 243/2/4 248/2/4
f 247/3/4 242/3/4 248/3/4
f 243/3/4 244/3/4 249/3/4
f 248/2/4 243/2/4 249/2/4
f 244/1/4 235/1/4 250/1/4
f 249/3/4 244/3/4 250/3/4
f 250/1/4 235/1/4 251/1/4
f 245/1/4 246/1/4 253/1/4
f 246/3/4 247/3/4 254/3/4
f 253/1/4 246/1/4 254/1/4
f 247/2/4 248/2/4 255/2/4
f 254/3/4 247/3/4 255/3/4
f 248/3/4 249/3/4 256/3/4
f 255/2/4 248/2/4 256/2/4
f 249/1/4 250/1/4 257/1/4
f 256/3/4 249/3/4 257/3/4
f 257/1/4 250/1/4 258/1/4
f 252/1/4 253/1/4 260/1/4
f 253/3/4 254/3/4 261/3/4
f 260/1/4 253/1/4 261/1/4
f 254/2/4 255/2/4 262/2/4
f 261/3/4 254/3/4 262/3/4
f 255/3/4 256/3/4 263/3/4
f 262/2/4 255/2/4 263/2/4
f 256/1/4 257/1/4 264/1/4
f 263/3/4 256/3/4 264/3/4
f 264/1/4 257/1/4 265/1/4
f 259/1/4 260/1/4 269/1/4
f 260/3/4 261/3/4 270/3/4
f 269/1/4 260/1/4 270/1/4
f 261/2/4 262/2/4 271/2/4
f 270/3/4 261/3/4 271/3/4
f 262/3/4 263/3/4 272/3/4
f 271/2/4 262/2/4 272/2/4
f 263/1/4 264/1/4 273/1/4
f 272/3/4 263/3/4 273/3/4
f 273/1/4 264/1/4 274/1/4
f 266/1/4 267/1/4 275/1/4
f 275/1/4 267/1/4 276/1/4
f 268/1/4 269/1/4 279/1/4
f 269/3/4 270/3/4 280/3/4
f 279/1/4 269/1/4 280/1/4
f 270/2/4 271/2/4 281/2/4
f 280/3/4 270/3/4 281/3/4
f 271/3/4 272/3/4 282/3/4
f 281/2/4 271/2/4 282/2/4
f 272/1/4 273/1/4 283/1/4
f 282/3/4 272/3/4 283/3/4
f 283/1/4 273/1/4 284/1/4
f 266/1/4 275/1/4 285/1/4
f 275/4/4 276/4/4 286/4/4
f 285/1/4 275/1/4 286/1/4
f 276/1/4 277/1/4 287/1/4
f 286/4/4 276/4/4 287/4/4
f 287/1/4 277/1/4 288/1/4
f 278/1/4 279/1/4 289/1/4
f 279/3/4 280/3/4 290/3/4
f 289/1/4 279/1/4 290/1/4
f 280/2/4 281/2/4 291/2/4
f 290/3/4 280/3/4 291/3/4
f 281/3/4 282/3/4 292/3/4
f 291/2/4 281/2/4 292/2/4
f 282/1/4 283/1/4 293/1/4
f 292/3/4 282/3/4 293/3/4
f 293/1/4 283/1/4 294/1/4
f 288/1/4 289/1/4 295/1/4
f 289/3/4 290/3/4 295/3/4
f 290/2/4 291/2/4 296/2/4
f 295/3/4 290/3/4 296/3/4
f 291/3/4 292/3/4 297/3/4
f 296/2/4 291/2/4 297/2/4
f 292/1/4 293/1/4 298/1/4
f 297/3/4 292/3/4 298/3/4
f 298/1/4 293/1/4 299/1/4
f 286/1/4 287/1/4 300/1/4
f 287/4/4 288/4/4 301/4/4
f 300/1/4 287/1/4 301/1/4
f 288/1/4 295/1/4 302/1/4
f 301/4/4 288/4/4 302/4/4
f 295/2/4 296/2/4 303/2/4
f 302/1/4 295/1/4 303/1/4
f 296/3/4 297/3/4 304/3/4
f 303/2/4 296/2/4 304/2/4
f 297/1/4 298/1/4 305/1/4
f 304/3/4 297/3/4 305/3/4
f 305/1/4 298/1/4 306/1/4
f 301/1/4 302/1/4 308/1/4
f 302/4/4 303/4/4 309/4/4
f 308/1/4 302/1/4 309/1/4
f 304/1/4 305/1/4 310/1/4
f 309/4/4 303/4/4 310/4/4
f 303/1/4 304/1/4 310/1/4
f 310/1/4 305/1/4 311/1/4
f 307/5/4 308/5/4 314/5/4
f 308/6/4 309/6/4 315/6/4
f 314/5/4 308/5/4 315/5/4
f 309/1/4 310/1/4 316/1/4
f 315/6/4 309/6/4 316/6/4
f 310/4/4 311/4/4 317/4/4
f 316/1/4 310/1/4 317/1/4
f 311/1/4 312/1/4 318/1/4
f 317/4/4 311/4/4 318/4/4
f 318/1/4 312/1/4 319/1/4
f 313/5/4 314/5/4 322/5/4
f 314/6/4 315/6/4 323/6/4
f 322/5/4 314/5/4 323/5/4
f 315/5/4 316/5/4 324/5/4
f 323/6/4 315/6/4 324/6/4
f 324/5/4 316/5/4 325/5/4
f 317/1/4 318/1/4 326/1/4
f 318/4/4 319/4/4 327/4/4
f 326/1/4 318/1/4 327/1/4
f 319/1/4 320/1/4 328/1/4
f 327/4/4 319/4/4 328/4/4
f 321/1/4 322/1/4 329/1/4
f 322/6/4 323/6/4 330/6/4
f 329/1/4 322/1/4 330/1/4
f 323/5/4 324/5/4 331/5/4
f 330/6/4 323/6/4 331/6/4
f 331/5/4 324/5/4 332/5/4
f 327/1/4 328/1/4 333/1/4
f 328/1/4 320/1/4 334/1/4
f 333/1/4 328/1/4 334/1/4
f 329/4/4 330/4/4 335/4/4
f 321/1/4 329/1/4 335/1/4
f 330/1/4 331/1/4 336/1/4
f 335/4/4 330/4/4 336/4/4
f 321/1/4 335/1/4 337/1/4
f 335/1/4 336/1/4 337/1/4
f 336/1/4 331/1/4 338/1/4
f 337/1/4 336/1/4 338/1/4
f 341/1/5 340/1/5 339/1/5
f 342/1/5 340/1/5 341/1/5
f 347/1/5 344/1/5 343/1/5
f 348/1/5 344/1/5 347/1/5
f 349/5/5 346/5/5 345/5/5
f 350/5/5 346/5/5 349/5/5
f 355/1/5 352/1/5 351/1/5
f 356/1/5 352/1/5 355/1/5
f 357/5/5 354/5/5 353/5/5
f 358/5/5 354/5/5 357/5/5
f 361/1/5 360/1/5 359/1/5
f 362/1/5 360/1/5 361/1/5
f 367/1/5 364/1/5 363/1/5
f 368/1/5 364/1/5 367/1/5
f 369/1/5 366/1/5 365/1/5
f 370/1/5 366/1/5 369/1/5
f 373/1/5 372/1/5 371/1/5
f 374/1/5 372/1/5 373/1/5
f 379/1/5 376/1/5 375/1/5
f 380/1/5 376/1/5 379/1/5
f 381/1/5 378/1/5 377/1/5
f 382/1/5 378/1/5 381/1/5
f 385/1/5 384/1/5 383/1/5
f 386/1/5 384/1/5 385/1/5
f 389/1/5 388/1/5 387/1/5
f 390/1/5 388/1/5 389/1/5
f 393/1/5 392/1/5 391/1/5
f 394/1/5 392/1/5 393/1/5
f 397/1/5 396/1/5 395/1/5
f 398/1/5 396/1/5 397/1/5
f 401/1/5 400/1/5 399/1/5
f 402/1/5 400/1/5 401/1/5
f 403/1/6 404/1/6 405/1/6
f 405/1/6 404/1/6 406/1/6
f 407/1/6 408/1/6 411/1/6
f 411/1/6 408/1/6 412/1/6
f 409/5/6 410/5/6 413/5/6
f 413/5/6 410/5/6 414/5/6
f 415/1/6 416/1/6 419/1/6
f 419/1/6 416/1/6 420/1/6
f 417/5/6 418/5/6 421/5/6
f 421/5/6 418/5/6 422/5/6
f 423/1/6 424/1/6 425/1/6
f 425/1/6 424/1/6 426/1/6
f 427/1/6 428/1/6 431/1/6
f 431/1/6 428/1/6 432/1/6
f 429/1/6 430/1/6 433/1/6
f 433/1/6 430/1/6 434/1/6
f 435/1/6 436/1/6 439/1/6
f 439/1/6 436/1/6 440/1/6
f 437/1/6 438/1/6 441/1/6
f 441/1/6 438/1/6 442/1/6
f 443/1/6 444/1/6 445/1/6
f 445/1/6 444/1/6 446/1/6
f 447/1/6 448/1/6 449/1/6
f 449/1/6 448/1/6 450/1/6
f 451/1/6 452/1/6 453/1/6
f 453/1/6 452/1/6 454/1/6
f 455/1/6 456/1/6 457/1/6
f 457/1/6 456/1/6 458/1/6
f 459/1/6 460/1/6 461/1/6
f 461/1/6 460/1/6 462/1/6
f 463/1/6 464/1/6 465/1/6
f 465/1/6 464/1/6 466/1/6
