# MagicaVoxel @ Ephtracy

# group
o 

# material
mtllib Wood Sword.mtl
usemtl palette

# normals
vn -1 0 0
vn 1 0 0
vn 0 0 1
vn 0 0 -1
vn 0 -1 0
vn 0 1 0

# texcoords
vt 0.720703 0.5
vt 0.724609 0.5
vt 0.728516 0.5
vt 0.970703 0.5
vt 0.986328 0.5
vt 0.990234 0.5

# verts
v -0.8 1.4 0.1
v -0.8 1.4 0
v -0.8 1.7 0.1
v -0.8 1.7 0
v -0.7 1.3 0.1
v -0.7 1.3 0
v -0.7 1.4 0.1
v -0.7 1.4 0
v -0.6 1.2 0.1
v -0.6 1.2 0
v -0.6 1.3 0.1
v -0.6 1.3 0
v -0.5 1.1 0.1
v -0.5 1.1 0
v -0.5 1.2 0.1
v -0.5 1.2 0
v -0.4 1 0.1
v -0.4 1 0
v -0.4 1.1 0.1
v -0.4 1.1 0
v -0.3 0.9 0.1
v -0.3 0.9 0
v -0.3 1 0.1
v -0.3 1 0
v -0.2 0.3 0.1
v -0.2 0.3 0
v -0.2 0.5 0.1
v -0.2 0.5 0
v -0.2 0.8 0.1
v -0.2 0.8 0
v -0.2 0.9 0.1
v -0.2 0.9 0
v -0.1 0.5 0.1
v -0.1 0.5 0
v -0.1 0.6 0.1
v -0.1 0.6 0
v -0.1 0.7 0.1
v -0.1 0.7 0
v -0.1 0.8 0.1
v -0.1 0.8 0
v 0 0.6 0.1
v 0 0.6 0
v 0 0.7 0.1
v 0 0.7 0
v 0.3 0.4 0.1
v 0.3 0.4 0
v 0.3 0.5 0.1
v 0.3 0.5 0
v 0.3 0.9 0.1
v 0.3 0.9 0
v 0.3 1 0.1
v 0.3 1 0
v 0.4 0.3 0.1
v 0.4 0.3 0
v 0.4 0.4 0.1
v 0.4 0.4 0
v 0.4 1 0.1
v 0.4 1 0
v 0.4 1.1 0.1
v 0.4 1.1 0
v 0.5 0.1 0.1
v 0.5 0.1 0
v 0.5 0.3 0.1
v 0.5 0.3 0
v -0.5 1.6 0.1
v -0.5 1.6 0
v -0.5 1.7 0.1
v -0.5 1.7 0
v -0.4 1.5 0.1
v -0.4 1.5 0
v -0.4 1.6 0.1
v -0.4 1.6 0
v -0.3 1.4 0.1
v -0.3 1.4 0
v -0.3 1.5 0.1
v -0.3 1.5 0
v -0.2 1.3 0.1
v -0.2 1.3 0
v -0.2 1.4 0.1
v -0.2 1.4 0
v -0.1 1.2 0.1
v -0.1 1.2 0
v -0.1 1.3 0.1
v -0.1 1.3 0
v 0 0.3 0.1
v 0 0.3 0
v 0 0.4 0.1
v 0 0.4 0
v 0 1.1 0.1
v 0 1.1 0
v 0 1.2 0.1
v 0 1.2 0
v 0.1 1 0.1
v 0.1 1 0
v 0.1 1.1 0.1
v 0.1 1.1 0
v 0.2 0.4 0.1
v 0.2 0.4 0
v 0.2 0.5 0.1
v 0.2 0.5 0
v 0.2 0.9 0.1
v 0.2 0.9 0
v 0.2 1 0.1
v 0.2 1 0
v 0.4 0.6 0.1
v 0.4 0.6 0
v 0.4 0.7 0.1
v 0.4 0.7 0
v 0.5 0.5 0.1
v 0.5 0.5 0
v 0.5 0.6 0.1
v 0.5 0.6 0
v 0.5 0.7 0.1
v 0.5 0.7 0
v 0.5 0.9 0.1
v 0.5 0.9 0
v 0.6 0.4 0.1
v 0.6 0.4 0
v 0.6 0.5 0.1
v 0.6 0.5 0
v 0.6 0.9 0.1
v 0.6 0.9 0
v 0.6 1.1 0.1
v 0.6 1.1 0
v 0.8 0.1 0.1
v 0.8 0.1 0
v 0.8 0.4 0.1
v 0.8 0.4 0
v -0.8 1.4 0.1
v -0.8 1.7 0.1
v -0.7 1.3 0.1
v -0.7 1.4 0.1
v -0.7 1.5 0.1
v -0.7 1.6 0.1
v -0.6 1.2 0.1
v -0.6 1.3 0.1
v -0.6 1.4 0.1
v -0.6 1.5 0.1
v -0.6 1.6 0.1
v -0.5 1.1 0.1
v -0.5 1.2 0.1
v -0.5 1.3 0.1
v -0.5 1.4 0.1
v -0.5 1.5 0.1
v -0.5 1.6 0.1
v -0.5 1.7 0.1
v -0.4 1 0.1
v -0.4 1.1 0.1
v -0.4 1.2 0.1
v -0.4 1.3 0.1
v -0.4 1.4 0.1
v -0.4 1.5 0.1
v -0.4 1.6 0.1
v -0.3 0.9 0.1
v -0.3 1 0.1
v -0.3 1.1 0.1
v -0.3 1.2 0.1
v -0.3 1.3 0.1
v -0.3 1.4 0.1
v -0.3 1.5 0.1
v -0.2 0.3 0.1
v -0.2 0.5 0.1
v -0.2 0.8 0.1
v -0.2 0.9 0.1
v -0.2 1 0.1
v -0.2 1.1 0.1
v -0.2 1.2 0.1
v -0.2 1.3 0.1
v -0.2 1.4 0.1
v -0.1 0.4 0.1
v -0.1 0.5 0.1
v -0.1 0.6 0.1
v -0.1 0.7 0.1
v -0.1 0.8 0.1
v -0.1 0.9 0.1
v -0.1 1 0.1
v -0.1 1.1 0.1
v -0.1 1.2 0.1
v -0.1 1.3 0.1
v 0 0.3 0.1
v 0 0.4 0.1
v 0 0.5 0.1
v 0 0.6 0.1
v 0 0.7 0.1
v 0 0.8 0.1
v 0 0.9 0.1
v 0 1 0.1
v 0 1.1 0.1
v 0 1.2 0.1
v 0.1 0.7 0.1
v 0.1 0.8 0.1
v 0.1 0.9 0.1
v 0.1 1 0.1
v 0.1 1.1 0.1
v 0.2 0.4 0.1
v 0.2 0.5 0.1
v 0.2 0.6 0.1
v 0.2 0.7 0.1
v 0.2 0.8 0.1
v 0.2 0.9 0.1
v 0.2 1 0.1
v 0.3 0.4 0.1
v 0.3 0.5 0.1
v 0.3 0.6 0.1
v 0.3 0.7 0.1
v 0.3 0.9 0.1
v 0.3 1 0.1
v 0.4 0.3 0.1
v 0.4 0.4 0.1
v 0.4 0.5 0.1
v 0.4 0.6 0.1
v 0.4 0.7 0.1
v 0.4 0.9 0.1
v 0.4 1 0.1
v 0.4 1.1 0.1
v 0.5 0.1 0.1
v 0.5 0.3 0.1
v 0.5 0.4 0.1
v 0.5 0.5 0.1
v 0.5 0.6 0.1
v 0.5 0.7 0.1
v 0.5 0.9 0.1
v 0.5 1 0.1
v 0.6 0.2 0.1
v 0.6 0.3 0.1
v 0.6 0.4 0.1
v 0.6 0.5 0.1
v 0.6 0.9 0.1
v 0.6 1.1 0.1
v 0.7 0.2 0.1
v 0.7 0.3 0.1
v 0.8 0.1 0.1
v 0.8 0.4 0.1
v -0.8 1.4 0
v -0.8 1.7 0
v -0.7 1.3 0
v -0.7 1.4 0
v -0.7 1.5 0
v -0.7 1.6 0
v -0.6 1.2 0
v -0.6 1.3 0
v -0.6 1.4 0
v -0.6 1.5 0
v -0.6 1.6 0
v -0.5 1.1 0
v -0.5 1.2 0
v -0.5 1.3 0
v -0.5 1.4 0
v -0.5 1.5 0
v -0.5 1.6 0
v -0.5 1.7 0
v -0.4 1 0
v -0.4 1.1 0
v -0.4 1.2 0
v -0.4 1.3 0
v -0.4 1.4 0
v -0.4 1.5 0
v -0.4 1.6 0
v -0.3 0.9 0
v -0.3 1 0
v -0.3 1.1 0
v -0.3 1.2 0
v -0.3 1.3 0
v -0.3 1.4 0
v -0.3 1.5 0
v -0.2 0.3 0
v -0.2 0.5 0
v -0.2 0.8 0
v -0.2 0.9 0
v -0.2 1 0
v -0.2 1.1 0
v -0.2 1.2 0
v -0.2 1.3 0
v -0.2 1.4 0
v -0.1 0.4 0
v -0.1 0.5 0
v -0.1 0.6 0
v -0.1 0.7 0
v -0.1 0.8 0
v -0.1 0.9 0
v -0.1 1 0
v -0.1 1.1 0
v -0.1 1.2 0
v -0.1 1.3 0
v 0 0.3 0
v 0 0.4 0
v 0 0.5 0
v 0 0.6 0
v 0 0.7 0
v 0 0.8 0
v 0 0.9 0
v 0 1 0
v 0 1.1 0
v 0 1.2 0
v 0.1 0.7 0
v 0.1 0.8 0
v 0.1 0.9 0
v 0.1 1 0
v 0.1 1.1 0
v 0.2 0.4 0
v 0.2 0.5 0
v 0.2 0.6 0
v 0.2 0.7 0
v 0.2 0.8 0
v 0.2 0.9 0
v 0.2 1 0
v 0.3 0.4 0
v 0.3 0.5 0
v 0.3 0.6 0
v 0.3 0.7 0
v 0.3 0.9 0
v 0.3 1 0
v 0.4 0.3 0
v 0.4 0.4 0
v 0.4 0.5 0
v 0.4 0.6 0
v 0.4 0.7 0
v 0.4 0.9 0
v 0.4 1 0
v 0.4 1.1 0
v 0.5 0.1 0
v 0.5 0.3 0
v 0.5 0.4 0
v 0.5 0.5 0
v 0.5 0.6 0
v 0.5 0.7 0
v 0.5 0.9 0
v 0.5 1 0
v 0.6 0.2 0
v 0.6 0.3 0
v 0.6 0.4 0
v 0.6 0.5 0
v 0.6 0.9 0
v 0.6 1.1 0
v 0.7 0.2 0
v 0.7 0.3 0
v 0.8 0.1 0
v 0.8 0.4 0
v 0.5 0.1 0.1
v 0.8 0.1 0.1
v 0.5 0.1 0
v 0.8 0.1 0
v -0.2 0.3 0.1
v 0 0.3 0.1
v 0.4 0.3 0.1
v 0.5 0.3 0.1
v -0.2 0.3 0
v 0 0.3 0
v 0.4 0.3 0
v 0.5 0.3 0
v 0 0.4 0.1
v 0.2 0.4 0.1
v 0.3 0.4 0.1
v 0.4 0.4 0.1
v 0 0.4 0
v 0.2 0.4 0
v 0.3 0.4 0
v 0.4 0.4 0
v 0.2 0.5 0.1
v 0.3 0.5 0.1
v 0.2 0.5 0
v 0.3 0.5 0
v -0.1 0.7 0.1
v 0 0.7 0.1
v 0.4 0.7 0.1
v 0.5 0.7 0.1
v -0.1 0.7 0
v 0 0.7 0
v 0.4 0.7 0
v 0.5 0.7 0
v -0.2 0.8 0.1
v -0.1 0.8 0.1
v -0.2 0.8 0
v -0.1 0.8 0
v -0.3 0.9 0.1
v -0.2 0.9 0.1
v 0.5 0.9 0.1
v 0.6 0.9 0.1
v -0.3 0.9 0
v -0.2 0.9 0
v 0.5 0.9 0
v 0.6 0.9 0
v -0.4 1 0.1
v -0.3 1 0.1
v -0.4 1 0
v -0.3 1 0
v -0.5 1.1 0.1
v -0.4 1.1 0.1
v -0.5 1.1 0
v -0.4 1.1 0
v -0.6 1.2 0.1
v -0.5 1.2 0.1
v -0.6 1.2 0
v -0.5 1.2 0
v -0.7 1.3 0.1
v -0.6 1.3 0.1
v -0.7 1.3 0
v -0.6 1.3 0
v -0.8 1.4 0.1
v -0.7 1.4 0.1
v -0.8 1.4 0
v -0.7 1.4 0
v 0.6 0.4 0.1
v 0.8 0.4 0.1
v 0.6 0.4 0
v 0.8 0.4 0
v -0.2 0.5 0.1
v -0.1 0.5 0.1
v 0.5 0.5 0.1
v 0.6 0.5 0.1
v -0.2 0.5 0
v -0.1 0.5 0
v 0.5 0.5 0
v 0.6 0.5 0
v -0.1 0.6 0.1
v 0 0.6 0.1
v 0.4 0.6 0.1
v 0.5 0.6 0.1
v -0.1 0.6 0
v 0 0.6 0
v 0.4 0.6 0
v 0.5 0.6 0
v 0.2 0.9 0.1
v 0.3 0.9 0.1
v 0.2 0.9 0
v 0.3 0.9 0
v 0.1 1 0.1
v 0.2 1 0.1
v 0.3 1 0.1
v 0.4 1 0.1
v 0.1 1 0
v 0.2 1 0
v 0.3 1 0
v 0.4 1 0
v 0 1.1 0.1
v 0.1 1.1 0.1
v 0.4 1.1 0.1
v 0.6 1.1 0.1
v 0 1.1 0
v 0.1 1.1 0
v 0.4 1.1 0
v 0.6 1.1 0
v -0.1 1.2 0.1
v 0 1.2 0.1
v -0.1 1.2 0
v 0 1.2 0
v -0.2 1.3 0.1
v -0.1 1.3 0.1
v -0.2 1.3 0
v -0.1 1.3 0
v -0.3 1.4 0.1
v -0.2 1.4 0.1
v -0.3 1.4 0
v -0.2 1.4 0
v -0.4 1.5 0.1
v -0.3 1.5 0.1
v -0.4 1.5 0
v -0.3 1.5 0
v -0.5 1.6 0.1
v -0.4 1.6 0.1
v -0.5 1.6 0
v -0.4 1.6 0
v -0.8 1.7 0.1
v -0.5 1.7 0.1
v -0.8 1.7 0
v -0.5 1.7 0

# faces
f 3/4/1 2/4/1 1/4/1
f 4/4/1 2/4/1 3/4/1
f 7/4/1 6/4/1 5/4/1
f 8/4/1 6/4/1 7/4/1
f 11/4/1 10/4/1 9/4/1
f 12/4/1 10/4/1 11/4/1
f 15/4/1 14/4/1 13/4/1
f 16/4/1 14/4/1 15/4/1
f 19/4/1 18/4/1 17/4/1
f 20/4/1 18/4/1 19/4/1
f 23/4/1 22/4/1 21/4/1
f 24/4/1 22/4/1 23/4/1
f 27/4/1 26/4/1 25/4/1
f 28/4/1 26/4/1 27/4/1
f 31/4/1 30/4/1 29/4/1
f 32/4/1 30/4/1 31/4/1
f 35/4/1 34/4/1 33/4/1
f 36/4/1 34/4/1 35/4/1
f 39/4/1 38/4/1 37/4/1
f 40/4/1 38/4/1 39/4/1
f 43/4/1 42/4/1 41/4/1
f 44/4/1 42/4/1 43/4/1
f 47/5/1 46/5/1 45/5/1
f 48/5/1 46/5/1 47/5/1
f 51/4/1 50/4/1 49/4/1
f 52/4/1 50/4/1 51/4/1
f 55/5/1 54/5/1 53/5/1
f 56/5/1 54/5/1 55/5/1
f 59/4/1 58/4/1 57/4/1
f 60/4/1 58/4/1 59/4/1
f 63/4/1 62/4/1 61/4/1
f 64/4/1 62/4/1 63/4/1
f 65/4/2 66/4/2 67/4/2
f 67/4/2 66/4/2 68/4/2
f 69/4/2 70/4/2 71/4/2
f 71/4/2 70/4/2 72/4/2
f 73/4/2 74/4/2 75/4/2
f 75/4/2 74/4/2 76/4/2
f 77/4/2 78/4/2 79/4/2
f 79/4/2 78/4/2 80/4/2
f 81/4/2 82/4/2 83/4/2
f 83/4/2 82/4/2 84/4/2
f 85/4/2 86/4/2 87/4/2
f 87/4/2 86/4/2 88/4/2
f 89/4/2 90/4/2 91/4/2
f 91/4/2 90/4/2 92/4/2
f 93/4/2 94/4/2 95/4/2
f 95/4/2 94/4/2 96/4/2
f 97/4/2 98/4/2 99/4/2
f 99/4/2 98/4/2 100/4/2
f 101/4/2 102/4/2 103/4/2
f 103/4/2 102/4/2 104/4/2
f 105/4/2 106/4/2 107/4/2
f 107/4/2 106/4/2 108/4/2
f 109/5/2 110/5/2 111/5/2
f 111/5/2 110/5/2 112/5/2
f 113/4/2 114/4/2 115/4/2
f 115/4/2 114/4/2 116/4/2
f 117/5/2 118/5/2 119/5/2
f 119/5/2 118/5/2 120/5/2
f 121/4/2 122/4/2 123/4/2
f 123/4/2 122/4/2 124/4/2
f 125/4/2 126/4/2 127/4/2
f 127/4/2 126/4/2 128/4/2
f 132/4/3 130/4/3 129/4/3
f 133/4/3 130/4/3 132/4/3
f 134/4/3 130/4/3 133/4/3
f 136/4/3 132/4/3 131/4/3
f 137/1/3 133/1/3 132/1/3
f 137/4/3 132/4/3 136/4/3
f 138/2/3 134/2/3 133/2/3
f 138/1/3 133/1/3 137/1/3
f 139/4/3 130/4/3 134/4/3
f 139/2/3 134/2/3 138/2/3
f 141/4/3 136/4/3 135/4/3
f 142/1/3 137/1/3 136/1/3
f 142/4/3 136/4/3 141/4/3
f 143/2/3 138/2/3 137/2/3
f 143/1/3 137/1/3 142/1/3
f 144/1/3 139/1/3 138/1/3
f 144/2/3 138/2/3 143/2/3
f 145/4/3 130/4/3 139/4/3
f 145/1/3 139/1/3 144/1/3
f 146/4/3 130/4/3 145/4/3
f 148/4/3 141/4/3 140/4/3
f 149/1/3 142/1/3 141/1/3
f 149/4/3 141/4/3 148/4/3
f 150/2/3 143/2/3 142/2/3
f 150/1/3 142/1/3 149/1/3
f 151/1/3 144/1/3 143/1/3
f 151/2/3 143/2/3 150/2/3
f 152/4/3 145/4/3 144/4/3
f 152/1/3 144/1/3 151/1/3
f 153/4/3 145/4/3 152/4/3
f 155/4/3 148/4/3 147/4/3
f 156/1/3 149/1/3 148/1/3
f 156/4/3 148/4/3 155/4/3
f 157/2/3 150/2/3 149/2/3
f 157/1/3 149/1/3 156/1/3
f 158/1/3 151/1/3 150/1/3
f 158/2/3 150/2/3 157/2/3
f 159/4/3 152/4/3 151/4/3
f 159/1/3 151/1/3 158/1/3
f 160/4/3 152/4/3 159/4/3
f 164/4/3 155/4/3 154/4/3
f 165/1/3 156/1/3 155/1/3
f 165/4/3 155/4/3 164/4/3
f 166/2/3 157/2/3 156/2/3
f 166/1/3 156/1/3 165/1/3
f 167/1/3 158/1/3 157/1/3
f 167/2/3 157/2/3 166/2/3
f 168/4/3 159/4/3 158/4/3
f 168/1/3 158/1/3 167/1/3
f 169/4/3 159/4/3 168/4/3
f 170/4/3 162/4/3 161/4/3
f 171/4/3 162/4/3 170/4/3
f 174/4/3 164/4/3 163/4/3
f 175/1/3 165/1/3 164/1/3
f 175/4/3 164/4/3 174/4/3
f 176/2/3 166/2/3 165/2/3
f 176/1/3 165/1/3 175/1/3
f 177/1/3 167/1/3 166/1/3
f 177/2/3 166/2/3 176/2/3
f 178/4/3 168/4/3 167/4/3
f 178/1/3 167/1/3 177/1/3
f 179/4/3 168/4/3 178/4/3
f 180/4/3 170/4/3 161/4/3
f 181/3/3 171/3/3 170/3/3
f 181/4/3 170/4/3 180/4/3
f 182/4/3 172/4/3 171/4/3
f 182/3/3 171/3/3 181/3/3
f 183/4/3 172/4/3 182/4/3
f 184/4/3 174/4/3 173/4/3
f 185/1/3 175/1/3 174/1/3
f 185/4/3 174/4/3 184/4/3
f 186/2/3 176/2/3 175/2/3
f 186/1/3 175/1/3 185/1/3
f 187/1/3 177/1/3 176/1/3
f 187/2/3 176/2/3 186/2/3
f 188/4/3 178/4/3 177/4/3
f 188/1/3 177/1/3 187/1/3
f 189/4/3 178/4/3 188/4/3
f 190/4/3 184/4/3 183/4/3
f 190/1/3 185/1/3 184/1/3
f 191/2/3 186/2/3 185/2/3
f 191/1/3 185/1/3 190/1/3
f 192/1/3 187/1/3 186/1/3
f 192/2/3 186/2/3 191/2/3
f 193/4/3 188/4/3 187/4/3
f 193/1/3 187/1/3 192/1/3
f 194/4/3 188/4/3 193/4/3
f 195/4/3 182/4/3 181/4/3
f 196/3/3 183/3/3 182/3/3
f 196/4/3 182/4/3 195/4/3
f 197/4/3 190/4/3 183/4/3
f 197/3/3 183/3/3 196/3/3
f 198/2/3 191/2/3 190/2/3
f 198/4/3 190/4/3 197/4/3
f 199/1/3 192/1/3 191/1/3
f 199/2/3 191/2/3 198/2/3
f 200/4/3 193/4/3 192/4/3
f 200/1/3 192/1/3 199/1/3
f 201/4/3 193/4/3 200/4/3
f 203/4/3 197/4/3 196/4/3
f 204/3/3 198/3/3 197/3/3
f 204/4/3 197/4/3 203/4/3
f 205/4/3 200/4/3 199/4/3
f 205/3/3 198/3/3 204/3/3
f 205/4/3 199/4/3 198/4/3
f 206/4/3 200/4/3 205/4/3
f 209/5/3 203/5/3 202/5/3
f 210/6/3 204/6/3 203/6/3
f 210/5/3 203/5/3 209/5/3
f 211/4/3 205/4/3 204/4/3
f 211/6/3 204/6/3 210/6/3
f 212/3/3 206/3/3 205/3/3
f 212/4/3 205/4/3 211/4/3
f 213/4/3 207/4/3 206/4/3
f 213/3/3 206/3/3 212/3/3
f 214/4/3 207/4/3 213/4/3
f 217/5/3 209/5/3 208/5/3
f 218/6/3 210/6/3 209/6/3
f 218/5/3 209/5/3 217/5/3
f 219/5/3 211/5/3 210/5/3
f 219/6/3 210/6/3 218/6/3
f 220/5/3 211/5/3 219/5/3
f 221/4/3 213/4/3 212/4/3
f 222/3/3 214/3/3 213/3/3
f 222/4/3 213/4/3 221/4/3
f 223/4/3 215/4/3 214/4/3
f 223/3/3 214/3/3 222/3/3
f 224/4/3 217/4/3 216/4/3
f 225/6/3 218/6/3 217/6/3
f 225/4/3 217/4/3 224/4/3
f 226/5/3 219/5/3 218/5/3
f 226/6/3 218/6/3 225/6/3
f 227/5/3 219/5/3 226/5/3
f 228/4/3 223/4/3 222/4/3
f 229/4/3 215/4/3 223/4/3
f 229/4/3 223/4/3 228/4/3
f 230/3/3 225/3/3 224/3/3
f 230/4/3 224/4/3 216/4/3
f 231/4/3 226/4/3 225/4/3
f 231/3/3 225/3/3 230/3/3
f 232/4/3 230/4/3 216/4/3
f 232/4/3 231/4/3 230/4/3
f 233/4/3 226/4/3 231/4/3
f 233/4/3 231/4/3 232/4/3
f 234/4/4 235/4/4 237/4/4
f 237/4/4 235/4/4 238/4/4
f 238/4/4 235/4/4 239/4/4
f 236/4/4 237/4/4 241/4/4
f 237/1/4 238/1/4 242/1/4
f 241/4/4 237/4/4 242/4/4
f 238/2/4 239/2/4 243/2/4
f 242/1/4 238/1/4 243/1/4
f 239/4/4 235/4/4 244/4/4
f 243/2/4 239/2/4 244/2/4
f 240/4/4 241/4/4 246/4/4
f 241/1/4 242/1/4 247/1/4
f 246/4/4 241/4/4 247/4/4
f 242/2/4 243/2/4 248/2/4
f 247/1/4 242/1/4 248/1/4
f 243/1/4 244/1/4 249/1/4
f 248/2/4 243/2/4 249/2/4
f 244/4/4 235/4/4 250/4/4
f 249/1/4 244/1/4 250/1/4
f 250/4/4 235/4/4 251/4/4
f 245/4/4 246/4/4 253/4/4
f 246/1/4 247/1/4 254/1/4
f 253/4/4 246/4/4 254/4/4
f 247/2/4 248/2/4 255/2/4
f 254/1/4 247/1/4 255/1/4
f 248/1/4 249/1/4 256/1/4
f 255/2/4 248/2/4 256/2/4
f 249/4/4 250/4/4 257/4/4
f 256/1/4 249/1/4 257/1/4
f 257/4/4 250/4/4 258/4/4
f 252/4/4 253/4/4 260/4/4
f 253/1/4 254/1/4 261/1/4
f 260/4/4 253/4/4 261/4/4
f 254/2/4 255/2/4 262/2/4
f 261/1/4 254/1/4 262/1/4
f 255/1/4 256/1/4 263/1/4
f 262/2/4 255/2/4 263/2/4
f 256/4/4 257/4/4 264/4/4
f 263/1/4 256/1/4 264/1/4
f 264/4/4 257/4/4 265/4/4
f 259/4/4 260/4/4 269/4/4
f 260/1/4 261/1/4 270/1/4
f 269/4/4 260/4/4 270/4/4
f 261/2/4 262/2/4 271/2/4
f 270/1/4 261/1/4 271/1/4
f 262/1/4 263/1/4 272/1/4
f 271/2/4 262/2/4 272/2/4
f 263/4/4 264/4/4 273/4/4
f 272/1/4 263/1/4 273/1/4
f 273/4/4 264/4/4 274/4/4
f 266/4/4 267/4/4 275/4/4
f 275/4/4 267/4/4 276/4/4
f 268/4/4 269/4/4 279/4/4
f 269/1/4 270/1/4 280/1/4
f 279/4/4 269/4/4 280/4/4
f 270/2/4 271/2/4 281/2/4
f 280/1/4 270/1/4 281/1/4
f 271/1/4 272/1/4 282/1/4
f 281/2/4 271/2/4 282/2/4
f 272/4/4 273/4/4 283/4/4
f 282/1/4 272/1/4 283/1/4
f 283/4/4 273/4/4 284/4/4
f 266/4/4 275/4/4 285/4/4
f 275/3/4 276/3/4 286/3/4
f 285/4/4 275/4/4 286/4/4
f 276/4/4 277/4/4 287/4/4
f 286/3/4 276/3/4 287/3/4
f 287/4/4 277/4/4 288/4/4
f 278/4/4 279/4/4 289/4/4
f 279/1/4 280/1/4 290/1/4
f 289/4/4 279/4/4 290/4/4
f 280/2/4 281/2/4 291/2/4
f 290/1/4 280/1/4 291/1/4
f 281/1/4 282/1/4 292/1/4
f 291/2/4 281/2/4 292/2/4
f 282/4/4 283/4/4 293/4/4
f 292/1/4 282/1/4 293/1/4
f 293/4/4 283/4/4 294/4/4
f 288/4/4 289/4/4 295/4/4
f 289/1/4 290/1/4 295/1/4
f 290/2/4 291/2/4 296/2/4
f 295/1/4 290/1/4 296/1/4
f 291/1/4 292/1/4 297/1/4
f 296/2/4 291/2/4 297/2/4
f 292/4/4 293/4/4 298/4/4
f 297/1/4 292/1/4 298/1/4
f 298/4/4 293/4/4 299/4/4
f 286/4/4 287/4/4 300/4/4
f 287/3/4 288/3/4 301/3/4
f 300/4/4 287/4/4 301/4/4
f 288/4/4 295/4/4 302/4/4
f 301/3/4 288/3/4 302/3/4
f 295/2/4 296/2/4 303/2/4
f 302/4/4 295/4/4 303/4/4
f 296/1/4 297/1/4 304/1/4
f 303/2/4 296/2/4 304/2/4
f 297/4/4 298/4/4 305/4/4
f 304/1/4 297/1/4 305/1/4
f 305/4/4 298/4/4 306/4/4
f 301/4/4 302/4/4 308/4/4
f 302/3/4 303/3/4 309/3/4
f 308/4/4 302/4/4 309/4/4
f 304/4/4 305/4/4 310/4/4
f 309/3/4 303/3/4 310/3/4
f 303/4/4 304/4/4 310/4/4
f 310/4/4 305/4/4 311/4/4
f 307/5/4 308/5/4 314/5/4
f 308/6/4 309/6/4 315/6/4
f 314/5/4 308/5/4 315/5/4
f 309/4/4 310/4/4 316/4/4
f 315/6/4 309/6/4 316/6/4
f 310/3/4 311/3/4 317/3/4
f 316/4/4 310/4/4 317/4/4
f 311/4/4 312/4/4 318/4/4
f 317/3/4 311/3/4 318/3/4
f 318/4/4 312/4/4 319/4/4
f 313/5/4 314/5/4 322/5/4
f 314/6/4 315/6/4 323/6/4
f 322/5/4 314/5/4 323/5/4
f 315/5/4 316/5/4 324/5/4
f 323/6/4 315/6/4 324/6/4
f 324/5/4 316/5/4 325/5/4
f 317/4/4 318/4/4 326/4/4
f 318/3/4 319/3/4 327/3/4
f 326/4/4 318/4/4 327/4/4
f 319/4/4 320/4/4 328/4/4
f 327/3/4 319/3/4 328/3/4
f 321/4/4 322/4/4 329/4/4
f 322/6/4 323/6/4 330/6/4
f 329/4/4 322/4/4 330/4/4
f 323/5/4 324/5/4 331/5/4
f 330/6/4 323/6/4 331/6/4
f 331/5/4 324/5/4 332/5/4
f 327/4/4 328/4/4 333/4/4
f 328/4/4 320/4/4 334/4/4
f 333/4/4 328/4/4 334/4/4
f 329/3/4 330/3/4 335/3/4
f 321/4/4 329/4/4 335/4/4
f 330/4/4 331/4/4 336/4/4
f 335/3/4 330/3/4 336/3/4
f 321/4/4 335/4/4 337/4/4
f 335/4/4 336/4/4 337/4/4
f 336/4/4 331/4/4 338/4/4
f 337/4/4 336/4/4 338/4/4
f 341/4/5 340/4/5 339/4/5
f 342/4/5 340/4/5 341/4/5
f 347/4/5 344/4/5 343/4/5
f 348/4/5 344/4/5 347/4/5
f 349/5/5 346/5/5 345/5/5
f 350/5/5 346/5/5 349/5/5
f 355/4/5 352/4/5 351/4/5
f 356/4/5 352/4/5 355/4/5
f 357/5/5 354/5/5 353/5/5
f 358/5/5 354/5/5 357/5/5
f 361/4/5 360/4/5 359/4/5
f 362/4/5 360/4/5 361/4/5
f 367/4/5 364/4/5 363/4/5
f 368/4/5 364/4/5 367/4/5
f 369/4/5 366/4/5 365/4/5
f 370/4/5 366/4/5 369/4/5
f 373/4/5 372/4/5 371/4/5
f 374/4/5 372/4/5 373/4/5
f 379/4/5 376/4/5 375/4/5
f 380/4/5 376/4/5 379/4/5
f 381/4/5 378/4/5 377/4/5
f 382/4/5 378/4/5 381/4/5
f 385/4/5 384/4/5 383/4/5
f 386/4/5 384/4/5 385/4/5
f 389/4/5 388/4/5 387/4/5
f 390/4/5 388/4/5 389/4/5
f 393/4/5 392/4/5 391/4/5
f 394/4/5 392/4/5 393/4/5
f 397/4/5 396/4/5 395/4/5
f 398/4/5 396/4/5 397/4/5
f 401/4/5 400/4/5 399/4/5
f 402/4/5 400/4/5 401/4/5
f 403/4/6 404/4/6 405/4/6
f 405/4/6 404/4/6 406/4/6
f 407/4/6 408/4/6 411/4/6
f 411/4/6 408/4/6 412/4/6
f 409/5/6 410/5/6 413/5/6
f 413/5/6 410/5/6 414/5/6
f 415/4/6 416/4/6 419/4/6
f 419/4/6 416/4/6 420/4/6
f 417/5/6 418/5/6 421/5/6
f 421/5/6 418/5/6 422/5/6
f 423/4/6 424/4/6 425/4/6
f 425/4/6 424/4/6 426/4/6
f 427/4/6 428/4/6 431/4/6
f 431/4/6 428/4/6 432/4/6
f 429/4/6 430/4/6 433/4/6
f 433/4/6 430/4/6 434/4/6
f 435/4/6 436/4/6 439/4/6
f 439/4/6 436/4/6 440/4/6
f 437/4/6 438/4/6 441/4/6
f 441/4/6 438/4/6 442/4/6
f 443/4/6 444/4/6 445/4/6
f 445/4/6 444/4/6 446/4/6
f 447/4/6 448/4/6 449/4/6
f 449/4/6 448/4/6 450/4/6
f 451/4/6 452/4/6 453/4/6
f 453/4/6 452/4/6 454/4/6
f 455/4/6 456/4/6 457/4/6
f 457/4/6 456/4/6 458/4/6
f 459/4/6 460/4/6 461/4/6
f 461/4/6 460/4/6 462/4/6
f 463/4/6 464/4/6 465/4/6
f 465/4/6 464/4/6 466/4/6
